<?xml version="1.0" encoding="UTF-8" standalone="no"?>
<!DOCTYPE svg PUBLIC "-//W3C//DTD SVG 1.1//EN" "http://www.w3.org/Graphics/SVG/1.1/DTD/svg11.dtd">
<svg width="100%" height="100%" viewBox="0 0 1660 561" version="1.1" xmlns="http://www.w3.org/2000/svg" xmlns:xlink="http://www.w3.org/1999/xlink" xml:space="preserve" xmlns:serif="http://www.serif.com/" style="fill-rule:evenodd;clip-rule:evenodd;stroke-linecap:round;stroke-miterlimit:1.5;">
    <g transform="matrix(0.903305,-0.606381,0.612308,0.912133,-17.0102,432.607)">
        <path d="M795.799,188.801C790.916,185.362 783.74,183.54 780.054,177.271C776.878,171.867 776.96,162.377 780.236,149.044C782.456,140.007 772.701,136.502 765.085,134.356C757.455,132.207 755.74,179.708 750.708,197.651C749.826,200.794 745.136,211.385 745.407,216.55C745.841,224.816 753.228,234.174 762.288,237.578C771.33,240.976 787.226,247.082 800.008,233.307C804.529,228.436 797.612,224.925 799.365,218.212C800.416,214.187 806.015,214.081 807.287,211.561C811.72,202.782 807.197,196.827 795.799,188.801Z" style="fill:rgb(102,165,88);stroke:rgb(54,54,54);stroke-width:2.29px;"/>
    </g>
    <g transform="matrix(1.36647,0,0,0.7373,-30.5306,65.6918)">
        <rect x="22.343" y="335.359" width="1214.75" height="30.768" style="fill:rgb(241,200,92);stroke:rgb(54,54,54);stroke-width:2.28px;stroke-miterlimit:2;"/>
    </g>
    <g transform="matrix(0.923277,0,0,0.923277,-0.717511,42.964)">
        <path d="M333.238,88.452L397.154,173.271L397.154,250.742L376.551,250.742L376.551,279.263L446.278,279.263L446.278,250.742L425.675,250.742L425.675,173.271L489.59,88.452L499.289,88.452L499.289,63.912L441.94,63.912L441.94,88.452L453.878,88.452L411.414,144.804L368.95,88.452L380.866,88.452L380.866,63.912L323.516,63.912L323.516,88.452L333.238,88.452Z" style="fill:rgb(238,238,238);stroke:rgb(136,136,136);stroke-width:2.71px;"/>
    </g>
    <g transform="matrix(0.909298,0,0,0.909298,6.88756,45.3603)">
        <path d="M566.111,83.212L566.111,61.586L513.782,61.586L513.782,90.107L537.59,90.107L537.59,252.4L517.93,252.4L517.93,280.921L589.425,280.921L589.425,252.4L566.111,252.4L566.111,132.937L605.578,189.302L616.222,189.302L658.046,129.571L658.046,250.742L636.559,250.742L636.559,279.263L708.053,279.263L708.053,250.742L686.567,250.742L686.567,90.107L710.374,90.107L710.374,61.586L658.046,61.586L658.046,79.847L610.9,147.178L566.111,83.212Z" style="fill:rgb(238,238,238);stroke:rgb(136,136,136);stroke-width:2.75px;"/>
    </g>
    <g transform="matrix(0.8864,0,0,0.906506,641.079,39.8466)">
        <path d="M566.111,83.212L566.111,61.586L513.782,61.586L513.782,90.107L537.59,90.107L537.59,252.4L517.93,252.4L517.93,280.921L589.425,280.921L589.425,252.4L566.111,252.4L566.111,132.937L605.578,189.302L616.222,189.302L658.046,129.571L658.046,250.742L636.559,250.742L636.559,279.263L708.053,279.263L708.053,250.742L686.567,250.742L686.567,90.107L710.374,90.107L710.374,61.586L658.046,61.586L658.046,79.847L610.9,147.178L566.111,83.212Z" style="fill:rgb(238,238,238);stroke:rgb(136,136,136);stroke-width:2.79px;"/>
    </g>
    <g transform="matrix(0.905689,0,0,0.905689,-4.58595,45.8614)">
        <path d="M1689.11,215.722C1689.03,233.971 1674.21,248.737 1655.94,248.737C1637.62,248.737 1622.77,233.885 1622.77,215.563L1622.77,213.355L1594.76,213.355L1594.76,215.563C1594.76,249.351 1622.15,276.741 1655.94,276.741C1688.89,276.741 1715.77,250.682 1717.07,218.041L1717.12,218.048L1717.12,215.557C1717.06,195.299 1706.87,176.51 1690.33,165.215C1690.1,165.059 1689.72,164.867 1689.49,164.715C1689.25,164.554 1688.13,163.981 1687.86,163.869C1678.84,160.108 1636.32,142.473 1633.3,141.22C1623.81,135.248 1617.94,124.848 1617.8,113.571C1618.02,95.427 1632.79,80.796 1650.97,80.796C1669.29,80.796 1684.14,95.649 1684.14,113.97L1684.14,116.178L1712.15,116.178L1712.15,113.97C1712.15,80.182 1684.76,52.792 1650.97,52.792C1617.47,52.792 1590.26,79.719 1589.8,113.113L1589.8,113.986C1590.09,134.712 1600.83,153.808 1618.23,164.824L1618.29,164.861L1621.48,166.613L1675.09,188.729C1683.75,194.907 1689.11,204.932 1689.11,215.722Z" style="fill:rgb(238,238,238);stroke:rgb(136,136,136);stroke-width:2.76px;"/>
    </g>
    <g transform="matrix(0.925288,0,0,0.916502,-13.7489,44.3723)">
        <path d="M935.368,55.976L935.368,105.187L960.887,105.187L960.887,84.497L1003.3,84.497L1003.3,244.398L981.77,244.398L981.77,272.919L1053.36,272.919L1053.36,244.398L1031.82,244.398L1031.82,84.497L1073.44,84.497L1073.44,105.187L1098.96,105.187L1098.96,55.976L935.368,55.976Z" style="fill:rgb(238,238,238);stroke:rgb(136,136,136);stroke-width:2.71px;"/>
    </g>
    <g transform="matrix(0.916502,0,0,0.916502,-13.5896,44.3723)">
        <path d="M1146.91,84.497L1146.91,244.398L1125.38,244.398L1125.38,272.919L1196.97,272.919L1196.97,244.398L1175.43,244.398L1175.43,84.497L1196.97,84.497L1196.97,55.976L1125.38,55.976L1125.38,84.497L1146.91,84.497Z" style="fill:rgb(238,238,238);stroke:rgb(136,136,136);stroke-width:2.73px;"/>
    </g>
    <g transform="matrix(0.897767,0,0,0.90415,-673.425,-145.596)">
        <path d="M1036.73,273.05L991.349,273.05C991.349,273.05 987.951,273.129 987.951,273.129C950.909,274.865 921.211,304.838 919.976,342.013L919.976,421.67C919.976,421.67 920.068,425.339 920.068,425.339C921.977,463.051 953.16,493.043 991.349,493.043C1030.77,493.043 1062.72,461.088 1062.72,421.67L1073.44,421.67L1073.44,395.678L993.142,395.678L993.142,421.67L1034.17,421.67C1034.17,445.321 1015,464.494 991.349,464.494C967.698,464.494 948.525,445.321 948.525,421.67L948.497,344.423C948.497,321.52 966.505,302.816 989.12,301.656L1036.73,301.656L1036.73,320.633L1062.72,320.633L1062.72,259.882L1036.73,259.882L1036.73,273.05Z" style="fill:rgb(238,238,238);stroke:rgb(136,136,136);stroke-width:2.77px;"/>
    </g>
    <g transform="matrix(0.927303,0,0,0.927303,-29.1223,45.986)">
        <path d="M1473.2,173.388L1473.2,239.479L1537.53,239.479L1537.53,219.584L1563.04,219.584L1563.04,268L1424.75,268L1424.75,239.479L1444.67,239.479L1444.67,82.105L1424.75,82.105L1424.75,53.584L1563.04,53.584L1563.04,102L1537.53,102L1537.53,82.105L1473.2,82.105L1473.2,149.195L1492.92,149.195L1492.92,125.394L1518.44,125.394L1518.44,197.189L1492.92,197.189L1492.92,173.388L1473.2,173.388Z" style="fill:rgb(238,238,238);stroke:rgb(136,136,136);stroke-width:2.7px;"/>
    </g>
    <g transform="matrix(0.927303,0,0,0.927303,-647.587,298.006)">
        <path d="M1473.2,173.388L1473.2,239.479L1537.53,239.479L1537.53,219.584L1563.04,219.584L1563.04,268L1424.75,268L1424.75,239.479L1444.67,239.479L1444.67,82.105L1424.75,82.105L1424.75,53.584L1563.04,53.584L1563.04,102L1537.53,102L1537.53,82.105L1473.2,82.105L1473.2,149.195L1492.92,149.195L1492.92,125.394L1518.44,125.394L1518.44,197.189L1492.92,197.189L1492.92,173.388L1473.2,173.388Z" style="fill:rgb(241,200,92);stroke:black;stroke-width:2.7px;"/>
    </g>
    <g transform="matrix(0.921312,0,0,0.921312,7.45137,48.8718)">
        <path d="M276.948,352.866L250.595,352.866L250.595,324.345L313.378,324.345L313.378,352.866L306.218,352.866L336.98,486.216L366.762,424.128L380.466,424.128L410.356,486.44L441.169,352.866L434.009,352.866L434.009,324.345L496.792,324.345L496.792,352.866L470.439,352.866L427.234,540.156L404.49,540.156L373.614,475.789L342.739,540.156L320.153,540.156L276.948,352.866Z" style="fill:rgb(241,200,92);stroke:black;stroke-width:2.71px;"/>
    </g>
    <g transform="matrix(0.897236,0,0,0.897236,12.6549,55.1231)">
        <path d="M552.454,354.602L538.509,354.602L538.509,326.081L594.92,326.081L594.92,354.602L580.975,354.602L580.975,476.309L581.003,476.309C581.003,499.96 600.176,519.133 623.827,519.133C647.478,519.133 666.651,499.96 666.651,476.309L666.68,476.309L666.68,354.602L652.735,354.602L652.735,326.081L709.145,326.081L709.145,354.602L695.201,354.602L695.201,477.801L695.185,477.801C694.394,516.528 662.749,547.683 623.827,547.683C584.906,547.683 553.26,516.528 552.469,477.801L552.454,477.801L552.454,354.602Z" style="fill:rgb(241,200,92);stroke:black;stroke-width:2.79px;"/>
    </g>
    <g transform="matrix(0.959506,0,0,0.959506,-91.169,-4.96074)">
        <g transform="matrix(0.501355,-0.55109,0.691692,0.629268,216.398,554.155)">
            <path d="M780.688,320.676C781.836,320.676 784.966,319.539 784.966,321.731C784.966,324.423 785.629,332.882 786.235,336.677C787.333,343.554 771.554,355.852 765.924,353.562C762.552,352.19 777.158,338.483 777.158,332.869C777.158,327.255 777.048,320.676 780.688,320.676Z" style="fill:rgb(244,228,95);stroke:rgb(54,54,54);stroke-width:2.05px;stroke-miterlimit:2;"/>
        </g>
        <g transform="matrix(0.767207,0.534613,-0.534613,0.767207,422.648,-332.246)">
            <path d="M759.115,338.393C760.983,338.393 767.298,346.282 767.967,349.291C768.487,351.631 767.967,354.453 767.967,356.979C767.967,362.751 767.314,368.201 763.993,368.201C762.106,368.201 761.025,366.317 759.644,363.488C758.596,361.34 756.983,358.576 756.983,356.085C756.983,354.592 758.127,350.345 757.339,347.779C756.426,344.809 750.977,342.25 754.406,341.376C756.771,340.774 757.646,338.393 759.115,338.393Z" style="fill:rgb(244,228,95);stroke:rgb(54,54,54);stroke-width:1.86px;stroke-miterlimit:2;"/>
        </g>
        <g transform="matrix(0.723114,-0.592894,0.592894,0.723114,60.7676,546.935)">
            <path d="M779.874,340.882C782.422,340.994 783.73,340.304 784.859,346.325C785.355,348.97 784.076,359.275 781.317,363.345C777.642,368.766 770.188,372.13 768.876,370.576C767.261,368.663 770.489,364.176 772.875,358.259C774.371,354.549 774.813,347.511 775.176,345.498C776.062,340.586 776.132,340.717 779.874,340.882Z" style="fill:rgb(244,228,95);stroke:rgb(54,54,54);stroke-width:1.86px;stroke-miterlimit:2;"/>
        </g>
        <g transform="matrix(0.512778,-0.622215,0.641664,0.528806,216.557,618.358)">
            <path d="M745.981,341.033C744.974,342.714 747.047,345.303 749.469,347.248C751.22,348.656 753.155,349.727 754.238,349.875C757.771,350.359 763.258,350.767 765.942,347.842C766.339,347.411 766.745,345.806 766.978,345.217" style="fill:rgb(244,228,95);"/>
        </g>
        <g transform="matrix(0.935103,0,0,0.935103,116.956,10.7429)">
            <path d="M804.126,346.584C806.911,346.584 810.414,351.236 810.414,356.35C810.414,359.158 809.599,367.519 807.033,371.6C804.925,374.953 801.302,375.632 799.885,374.573C797.189,372.56 799.195,362.618 799.682,357.526C799.758,356.728 800.025,353.375 800.067,352.727C800.396,347.68 801.658,346.584 804.126,346.584Z" style="fill:rgb(244,228,95);stroke:rgb(54,54,54);stroke-width:1.86px;stroke-miterlimit:2;"/>
        </g>
        <g transform="matrix(0.618819,-0.289499,0.396247,0.846998,226.185,280.651)">
            <path d="M829.054,343.523C833.505,343.523 838.344,349.177 838.344,355.548C838.344,358.093 834.923,367.796 832.796,370.732C829.598,375.146 824.693,375.678 821.862,374.71C819.605,373.939 817.949,372.126 818.645,368.665C819.335,365.235 820.315,360.363 820.856,357.673C821.659,353.684 821.834,348.454 823.216,345.819C825.097,342.23 826.488,343.523 829.054,343.523Z" style="fill:rgb(244,228,95);stroke:rgb(54,54,54);stroke-width:2.12px;stroke-miterlimit:2;"/>
        </g>
        <g transform="matrix(0.785482,-0.507381,0.507381,0.785482,49.8246,486.503)">
            <path d="M841.619,340.52C842.797,340.786 842.728,340.013 844.092,342.906C844.713,344.223 847.036,347.581 847.57,349.934C848.07,352.141 847.369,353.607 846.764,355.949C846.008,358.877 844.38,362.974 843.167,364.684C841.851,366.538 837.435,366.942 836.204,361.768C835.547,359.006 836.475,355.114 836.475,349.924C836.475,344.734 838.849,339.896 841.619,340.52Z" style="fill:rgb(244,228,95);stroke:rgb(54,54,54);stroke-width:1.86px;stroke-miterlimit:2;"/>
        </g>
        <g transform="matrix(0.519827,-0.630768,0.641664,0.528806,211.177,624.93)">
            <path d="M767.54,346.518C767.612,346.336 767.677,346.148 767.735,345.955C768.611,343.068 768.033,339.152 767.751,338.026C766.424,332.721 762.587,326.092 760.36,324.293C756.818,321.43 751.259,321.053 748.852,321.626C745.969,322.312 740.505,328.894 741.837,332.791C742.883,335.851 746.591,338.34 746.205,340.447C746.169,340.646 746.096,340.841 745.981,341.033" style="fill:rgb(244,228,95);stroke:rgb(54,54,54);stroke-width:2.11px;stroke-miterlimit:2;"/>
        </g>
        <g transform="matrix(0.519827,-0.630768,0.641664,0.528806,261.248,626.624)">
            <path d="M770.358,361.083C771.234,358.196 767.638,338.528 767.356,337.401C766.029,332.096 761.282,327.096 759.378,324.878C756.42,321.434 749.678,313.64 743.738,315.028C742.156,315.397 738.532,317.1 737.93,321.362C737.607,323.643 743.322,329.841 746.318,332.269C748.851,334.322 741.033,340.687 739.48,342.021" style="fill:rgb(244,228,95);stroke:rgb(54,54,54);stroke-width:2.11px;stroke-miterlimit:2;"/>
        </g>
        <g transform="matrix(0.98245,0,0,1.29671,82.5376,-38.9257)">
            <path d="M746.394,270.532L746.394,273.462C746.394,275.658 748.747,277.441 751.646,277.441C754.545,277.441 756.898,275.658 756.898,273.462L756.898,270.53" style="fill:rgb(244,228,95);"/>
        </g>
        <g transform="matrix(0.98245,0,0,1.29671,131.162,-35.6737)">
            <path d="M746.394,270.532L746.394,273.462C746.394,275.658 748.747,277.441 751.646,277.441C754.545,277.441 756.898,275.658 756.898,273.462L756.898,270.53" style="fill:rgb(244,228,95);"/>
        </g>
        <g transform="matrix(0.9246,-0.0713304,0.0774648,1.00412,113.449,53.1272)">
            <rect x="736.187" y="266.005" width="11.223" height="13.457" style="fill:rgb(244,228,95);"/>
        </g>
        <g transform="matrix(0.927347,-0.00120247,0.00102177,0.787992,181.383,58.5743)">
            <rect x="736.187" y="266.005" width="11.223" height="13.457" style="fill:rgb(244,228,95);"/>
        </g>
        <g transform="matrix(0.979539,-0.0755687,0.101185,1.31158,56.4375,-29.2493)">
            <path d="M752.751,308.515L753.692,307.314L756.898,272.185C756.898,272.185 758.571,261.526 758.571,258.641C758.571,255.319 756.898,247.196 756.898,247.196C756.898,244.588 754.545,242.47 751.646,242.47C748.747,242.47 746.394,244.588 746.394,247.196C746.394,247.196 747.674,256.201 747.674,259.535C747.674,262.465 746.394,272.275 746.394,272.275L743.681,305.434L743.691,306.627" style="fill:rgb(244,228,95);stroke:rgb(54,54,54);stroke-width:1.5px;stroke-miterlimit:2;"/>
        </g>
        <g transform="matrix(0.980482,-0.0621533,0.0827286,1.30506,110.149,-39.2044)">
            <path d="M753.414,311.316C753.414,311.316 753.842,307.824 753.848,307.757C754.022,305.655 756.832,271.839 757.137,270.983C757.534,269.872 758.37,268.605 758.727,267.737C759.764,265.213 762.344,262.85 763.124,257.04C763.568,253.734 761.797,244.173 761.797,244.173C761.797,241.564 754.545,242.47 751.646,242.47C748.747,242.47 746.394,244.588 746.394,247.196C746.394,247.196 746.443,263.003 746.394,267.203C746.375,268.753 746.152,271.679 746.105,272.285L743.38,307.131" style="fill:rgb(244,228,95);stroke:rgb(54,54,54);stroke-width:1.5px;stroke-miterlimit:2;"/>
        </g>
        <g transform="matrix(0.935103,0,0,0.935103,111.946,17.7347)">
            <path d="M746.401,223.135C726.728,208.926 713.701,184.233 713.701,156.172C713.701,127.756 727.061,102.793 747.153,88.675C738.2,79.93 732.63,67.672 732.63,54.111C732.63,44.173 735.621,34.934 740.742,27.268C740.217,25.75 739.932,24.125 739.932,22.436C739.932,14.075 746.909,7.286 755.502,7.286C757.308,7.286 759.042,7.586 760.655,8.137C762.427,4.65 765.413,2.19 769.045,1.699C772.825,1.189 776.495,2.921 779.158,6.039C779.516,6.031 779.875,6.027 780.235,6.027C782.445,6.027 784.619,6.179 786.746,6.474C789.759,4.478 793.265,3.794 796.508,4.902C799.714,5.998 802.052,8.638 803.226,12.004C817.898,20.202 827.84,35.993 827.84,54.111C827.84,65.748 823.739,76.426 816.916,84.749C840.445,97.795 856.633,124.892 856.633,156.172C856.633,184.76 843.112,209.854 822.816,223.926C823.01,224.742 823.113,225.591 823.113,226.464C823.113,232.649 817.947,237.671 811.585,237.671C807.958,237.671 804.72,236.04 802.606,233.492C797.025,235.055 791.182,235.886 785.167,235.886C778.762,235.886 772.552,234.944 766.641,233.177C764.538,235.905 761.185,237.671 757.411,237.671C751.049,237.671 745.883,232.649 745.883,226.464C745.883,225.305 746.064,224.187 746.401,223.135Z" style="fill:rgb(102,165,88);stroke:rgb(54,54,54);stroke-width:2.79px;"/>
        </g>
        <g transform="matrix(1.30137,0,0,0.979111,-179.838,9.70008)">
            <ellipse cx="788.396" cy="158.799" rx="41.995" ry="64.335" style="fill:url(#_Radial1);"/>
        </g>
        <g transform="matrix(0.729159,0.227637,-0.203105,0.650578,267.912,-154.461)">
            <path d="M786.022,58.115C786.022,55.874 784.399,54.054 782.399,54.054L744.388,54.054C742.389,54.054 740.766,55.874 740.766,58.115C740.766,60.356 742.389,62.175 744.388,62.175L782.399,62.175C784.399,62.175 786.022,60.356 786.022,58.115Z" style="fill:rgb(54,54,54);"/>
        </g>
        <g transform="matrix(0.935103,0,0,0.935103,111.946,21.4751)">
            <g transform="matrix(0.808497,0.588501,-0.656865,0.902417,215.55,-489.591)">
                <path d="M796.055,78.742C806.352,80.495 814.631,87.18 814.631,95.86C814.631,100.267 810.766,98.333 806.73,100.916C802.817,103.419 798.815,110.508 793.581,110.508C790.279,110.508 788.857,107.892 786.344,106.501C783.962,105.182 781.109,106.305 779.301,104.548C776.875,102.19 775.438,98.115 775.356,94.687C775.283,91.625 777.703,88.804 781.37,85.759C786.051,81.872 792.54,78.144 796.055,78.742Z" style="fill:rgb(223,213,88);"/>
            </g>
            <g transform="matrix(0.808497,0.588501,-0.656865,0.902417,215.514,-489.591)">
                <path d="M790.099,79.718C792.325,78.86 794.431,78.466 796.055,78.742C806.352,80.495 814.631,87.18 814.631,95.86C814.631,100.267 810.766,98.333 806.73,100.916C802.817,103.419 798.815,110.508 793.581,110.508" style="fill:rgb(223,213,88);stroke:rgb(54,54,54);stroke-width:2.63px;"/>
            </g>
            <g transform="matrix(0.808497,0.588501,-0.656865,0.902417,209.252,-474.734)">
                <path d="M803.92,86.192C803.258,85.826 797.048,86.462 790.202,89.577C788.911,90.165 785.493,92.041 782.714,92.01C779.44,91.974 776.834,89.96 776.454,89.848" style="fill:rgb(223,213,88);stroke:rgb(54,54,54);stroke-width:2.63px;"/>
            </g>
        </g>
        <g transform="matrix(1.17061,0,0,1.18097,-18.8434,-7.81301)">
            <ellipse cx="760.898" cy="53.913" rx="9.595" ry="9.511" style="fill:white;stroke:rgb(54,54,54);stroke-width:2.22px;"/>
        </g>
        <g transform="matrix(1.03893,-0.119576,0.132331,1.14975,72.6009,91.7384)">
            <ellipse cx="762.967" cy="49.881" rx="3.577" ry="3.232"/>
        </g>
        <g transform="matrix(0.903084,-0.139459,0.198844,1.28763,138.47,79.2599)">
            <rect x="770.327" y="66.864" width="14.84" height="3.493" style="fill:rgb(54,54,54);"/>
        </g>
        <g transform="matrix(1.17061,0,0,1.18097,-52.8724,-2.28161)">
            <ellipse cx="760.898" cy="53.913" rx="9.595" ry="9.511" style="fill:white;stroke:rgb(54,54,54);stroke-width:2.22px;"/>
        </g>
        <g transform="matrix(0.701457,0.712711,-0.712711,0.701457,368.471,-671.359)">
            <g transform="matrix(1.85314,0,0,1.86954,-405.241,68.1689)">
                <ellipse cx="760.898" cy="53.913" rx="9.595" ry="9.511" style="fill:rgb(217,217,217);stroke:rgb(54,54,54);stroke-width:0.7px;"/>
            </g>
            <g transform="matrix(0.684846,0,0,0.751006,319.695,42.0996)">
                <path d="M1001.71,160.601C1001.71,159.942 1001.12,159.407 1000.4,159.407C999.674,159.407 999.087,159.942 999.087,160.601L999.087,171.478C999.087,172.136 999.674,172.671 1000.4,172.671C1001.12,172.671 1001.71,172.136 1001.71,171.478L1001.71,160.601Z" style="fill:rgb(67,67,67);"/>
            </g>
            <g transform="matrix(0.417367,0.542972,-0.872984,0.671037,737.308,-487.629)">
                <path d="M1001.71,160.222C1001.71,159.772 1001.12,159.407 1000.4,159.407C999.674,159.407 999.087,159.772 999.087,160.222L999.087,171.857C999.087,172.307 999.674,172.671 1000.4,172.671C1001.12,172.671 1001.71,172.307 1001.71,171.857L1001.71,160.222Z" style="fill:rgb(67,67,67);"/>
            </g>
            <g>
                <g transform="matrix(0.369692,0,0,0.212411,634.974,118.889)">
                    <path d="M1001.71,161.686C1001.71,160.428 1001.12,159.407 1000.4,159.407C999.674,159.407 999.087,160.428 999.087,161.686L999.087,170.393C999.087,171.651 999.674,172.671 1000.4,172.671C1001.12,172.671 1001.71,171.651 1001.71,170.393L1001.71,161.686Z" style="fill:rgb(83,83,83);"/>
                </g>
                <g transform="matrix(0.369692,0,0,0.212411,634.974,148.498)">
                    <path d="M1001.71,161.686C1001.71,160.428 1001.12,159.407 1000.4,159.407C999.674,159.407 999.087,160.428 999.087,161.686L999.087,170.393C999.087,171.651 999.674,172.671 1000.4,172.671C1001.12,172.671 1001.71,171.651 1001.71,170.393L1001.71,161.686Z" style="fill:rgb(83,83,83);"/>
                </g>
            </g>
            <g transform="matrix(0.707107,-0.707107,0.707107,0.707107,174.829,760.514)">
                <g transform="matrix(0.369692,0,0,0.212411,634.974,118.889)">
                    <path d="M1001.71,161.686C1001.71,160.428 1001.12,159.407 1000.4,159.407C999.674,159.407 999.087,160.428 999.087,161.686L999.087,170.393C999.087,171.651 999.674,172.671 1000.4,172.671C1001.12,172.671 1001.71,171.651 1001.71,170.393L1001.71,161.686Z" style="fill:rgb(120,120,120);"/>
                </g>
                <g transform="matrix(0.369692,0,0,0.212411,634.974,148.498)">
                    <path d="M1001.71,161.686C1001.71,160.428 1001.12,159.407 1000.4,159.407C999.674,159.407 999.087,160.428 999.087,161.686L999.087,170.393C999.087,171.651 999.674,172.671 1000.4,172.671C1001.12,172.671 1001.71,171.651 1001.71,170.393L1001.71,161.686Z" style="fill:rgb(120,120,120);"/>
                </g>
            </g>
            <g transform="matrix(-0.707107,-0.707107,-0.707107,0.707107,1834.8,760.514)">
                <g transform="matrix(0.369692,0,0,0.212411,634.974,118.889)">
                    <path d="M1001.71,161.686C1001.71,160.428 1001.12,159.407 1000.4,159.407C999.674,159.407 999.087,160.428 999.087,161.686L999.087,170.393C999.087,171.651 999.674,172.671 1000.4,172.671C1001.12,172.671 1001.71,171.651 1001.71,170.393L1001.71,161.686Z" style="fill:rgb(120,120,120);"/>
                </g>
                <g transform="matrix(0.369692,0,0,0.212411,634.974,148.498)">
                    <path d="M1001.71,161.686C1001.71,160.428 1001.12,159.407 1000.4,159.407C999.674,159.407 999.087,160.428 999.087,161.686L999.087,170.393C999.087,171.651 999.674,172.671 1000.4,172.671C1001.12,172.671 1001.71,171.651 1001.71,170.393L1001.71,161.686Z" style="fill:rgb(120,120,120);"/>
                </g>
            </g>
            <g transform="matrix(6.12323e-17,1,-1,6.12323e-17,1173.77,-835.334)">
                <g transform="matrix(0.369692,0,0,0.212411,634.974,118.889)">
                    <path d="M1001.71,161.686C1001.71,160.428 1001.12,159.407 1000.4,159.407C999.674,159.407 999.087,160.428 999.087,161.686L999.087,170.393C999.087,171.651 999.674,172.671 1000.4,172.671C1001.12,172.671 1001.71,171.651 1001.71,170.393L1001.71,161.686Z" style="fill:rgb(83,83,83);"/>
                </g>
                <g transform="matrix(0.369692,0,0,0.212411,634.974,148.498)">
                    <path d="M1001.71,161.686C1001.71,160.428 1001.12,159.407 1000.4,159.407C999.674,159.407 999.087,160.428 999.087,161.686L999.087,170.393C999.087,171.651 999.674,172.671 1000.4,172.671C1001.12,172.671 1001.71,171.651 1001.71,170.393L1001.71,161.686Z" style="fill:rgb(83,83,83);"/>
                </g>
            </g>
        </g>
        <g transform="matrix(0.935103,0,0,0.935103,114.207,22.2931)">
            <path d="M777.271,116.727L770.029,108.339L784.784,91.252L799.539,108.339L792.296,116.727L807.4,165.699L784.784,202.751L762.168,165.699L777.271,116.727Z" style="fill:rgb(192,39,39);stroke:rgb(54,54,54);stroke-width:2.79px;"/>
        </g>
        <g transform="matrix(0.941427,-0.631973,0.638149,0.950628,-44.3573,451.808)">
            <path d="M805.163,174.494C797.586,157.018 781.306,139.233 763.134,134.114C755.504,131.964 748.556,137.705 757.306,155.688C761.016,163.314 756.169,185.825 751.137,203.768C749.794,208.558 747.655,219.763 749.952,226.938C749.958,226.957 756.846,233.951 762.027,235.897C770.258,238.991 775.838,243.007 787.804,241.008C792.856,240.164 795.829,234.44 798.288,230.179C807.629,213.992 808.638,182.51 805.163,174.494Z" style="fill:rgb(102,165,88);stroke:rgb(54,54,54);stroke-width:2.29px;"/>
        </g>
        <g transform="matrix(0.518657,-0.432308,1.23224,1.47837,329.227,339.963)">
            <path d="M910.523,128.424L901.743,131.132L901.802,137.467L910.523,137.467L910.523,128.424Z" style="fill:rgb(102,165,88);"/>
        </g>
        <g transform="matrix(0.935103,0,0,0.935103,111.946,17.7347)">
            <ellipse cx="907.403" cy="134.183" rx="1.574" ry="2.452" style="fill:none;"/>
        </g>
        <g transform="matrix(1.21469,-0.642096,0.805858,1.52449,-247.799,523.363)">
            <ellipse cx="908.062" cy="135.454" rx="3.331" ry="3.724" style="fill:rgb(102,165,88);"/>
        </g>
        <g transform="matrix(1.1945,0,0,1.02431,-122.099,5.70317)">
            <path d="M904.616,135.331C905.174,136.714 905.349,138.553 906.36,140.152C908.964,144.276 910.513,144.732 912.436,144.126" style="fill:none;stroke:rgb(54,54,54);stroke-width:1.17px;stroke-miterlimit:2;"/>
        </g>
        <g transform="matrix(0.862687,0,0,0.858358,179.318,29.2572)">
            <path d="M912.298,144.126C912.423,144.126 912.547,144.122 912.671,144.115C914.721,143.999 916.6,142.935 917.739,141.321C918.547,140.176 919.266,137.542 918.94,135.801" style="fill:rgb(102,165,88);stroke:rgb(54,54,54);stroke-width:3.03px;stroke-miterlimit:2;"/>
        </g>
        <g transform="matrix(0.613558,-0.400257,0.290643,0.44553,362.079,460.093)">
            <path d="M898.943,202.294C904.45,200.718 908.851,193.062 908.948,181.291C909.053,168.617 906.693,155.88 901.592,155.951C886.109,156.165 893.092,173.598 893.143,180.488C893.224,191.636 883.446,206.727 898.943,202.294Z" style="fill:rgb(102,165,88);stroke:rgb(54,54,54);stroke-width:4.07px;stroke-miterlimit:2;"/>
        </g>
        <g transform="matrix(0.981861,-0.274621,0.143697,0.513766,48.9109,344.282)">
            <path d="M898.943,202.294C904.567,202.216 908.851,193.062 908.948,181.291C909.053,168.617 906.693,155.88 901.592,155.951C886.109,156.165 893.092,173.598 893.143,180.488C893.224,191.636 888.605,202.437 898.943,202.294Z" style="fill:rgb(102,165,88);stroke:rgb(54,54,54);stroke-width:3.2px;stroke-miterlimit:2;"/>
        </g>
        <g transform="matrix(1.10907,0.327697,-0.137244,0.464493,-30.9369,-182.968)">
            <path d="M899.837,201.582C904.369,201.405 908.97,191.726 908.871,178.246C908.779,165.572 905.887,146.317 898.775,146.594C888.779,146.983 890.471,170.658 890.522,177.548C890.603,188.696 894.761,201.779 899.837,201.582Z" style="fill:rgb(102,165,88);stroke:rgb(54,54,54);stroke-width:2.94px;stroke-miterlimit:2;"/>
        </g>
        <g transform="matrix(1.03893,-0.119576,0.132331,1.14975,38.5719,97.2698)">
            <ellipse cx="762.967" cy="49.881" rx="3.577" ry="3.232"/>
        </g>
        <g transform="matrix(1.59123,-0.759508,0.38951,0.816054,-444.886,604.458)">
            <path d="M763.607,187.629C763.607,182.695 760.888,178.689 757.539,178.689C754.562,178.689 752.083,181.853 751.569,186.021C751.504,186.543 751.471,187.08 751.471,187.629" style="fill:rgb(102,165,88);"/>
        </g>
        <g transform="matrix(1.19583,-0.570781,0.38951,0.816054,-140.984,454.846)">
            <path d="M751.471,187.629L750.405,199.25C750.405,204.184 752.366,208.891 755.713,209.062C758.414,209.201 761.526,202.332 762.378,198.607C763.036,195.736 763.359,188.086 762.009,183.335" style="fill:rgb(102,165,88);stroke:rgb(54,54,54);stroke-width:2.3px;stroke-miterlimit:2;"/>
        </g>
        <g transform="matrix(1.51349,-0.400729,0.240225,0.907292,-362.53,317.804)">
            <path d="M763.607,187.629C763.607,182.695 760.888,178.689 757.539,178.689C754.562,178.689 752.083,181.853 751.569,186.021C751.504,186.543 751.471,187.08 751.471,187.629" style="fill:rgb(102,165,88);"/>
        </g>
        <g transform="matrix(1.22467,-0.441961,0.30695,0.850555,-176.05,360.415)">
            <path d="M763.607,187.629C763.607,182.695 760.888,178.689 757.539,178.689C754.562,178.689 752.083,181.853 751.569,186.021C751.504,186.543 751.471,187.08 751.471,187.629" style="fill:rgb(102,165,88);"/>
        </g>
        <g transform="matrix(1.25319,-0.452254,0.298017,0.825802,-197.463,371.013)">
            <path d="M750.44,178.527L751.72,198.887C751.802,200.205 753.227,208.296 757.774,209.925C763.085,211.827 763.955,201.678 763.955,200.391L764.044,195.485" style="fill:rgb(102,165,88);stroke:rgb(54,54,54);stroke-width:2.31px;stroke-miterlimit:2;"/>
        </g>
        <g transform="matrix(1.68424,-0.347757,0.189788,0.919166,-483.755,271.984)">
            <path d="M750.565,187.335C751.406,190.236 751.507,196.071 751.76,198.417C752.198,202.474 752.556,209.199 756.398,209.733C758.206,209.984 759.786,206.7 760.734,201.897C761.98,195.593 760.423,188.57 759.18,183.71" style="fill:rgb(102,165,88);stroke:rgb(54,54,54);stroke-width:1.88px;stroke-miterlimit:2;"/>
        </g>
    </g>
    <g transform="matrix(0.444004,-0.520501,0.342647,0.292289,379.693,574.49)">
        <path d="M898.943,202.294C904.45,200.718 910.62,193.246 910.717,181.474C910.822,168.8 909.538,154.452 901.592,155.951C889.596,158.213 896.1,171.052 895.379,178.662C894.33,189.717 883.446,206.727 898.943,202.294Z" style="fill:rgb(102,165,88);stroke:rgb(54,54,54);stroke-width:4.32px;stroke-miterlimit:2;"/>
    </g>
    <g transform="matrix(0.897236,0,0,0.897236,-15.3868,-8.48294)">
        <g transform="matrix(1.18832,-0.500466,0.580359,1.37802,-111.702,-322.345)">
            <path d="M22.343,442.389C22.343,433.365 9.255,421.446 -17.755,421.446C-39.31,421.446 -53.5,433.365 -53.5,442.389L-53.5,623.357C-53.468,631.574 -37.098,643.209 -12.447,641.821C14.263,640.318 20.554,634.349 22.343,623.357L22.343,442.389Z" style="fill:rgb(219,214,220);stroke:rgb(54,54,54);stroke-width:3.99px;stroke-miterlimit:2;"/>
        </g>
        <g transform="matrix(1.18832,-0.500466,0.580359,1.37802,-111.702,-322.345)">
            <path d="M22.343,448.878L22.343,442.389C22.343,433.365 9.255,421.446 -17.755,421.446C-39.31,421.446 -53.5,433.365 -53.5,442.389L-54.163,454.364" style="fill:rgb(168,168,168);stroke:rgb(54,54,54);stroke-width:3.99px;stroke-miterlimit:2;"/>
        </g>
        <g transform="matrix(1.60162,-0.673257,0.395873,0.941744,-179.947,97.9708)">
            <path d="M145.021,301.116C145.021,299.132 144.073,297.521 142.907,297.521L93.872,300C92.705,300 91.758,301.611 91.758,303.595C91.415,306.22 92.318,308.877 95.743,309.85C101.599,311.512 105.186,313.793 110.645,314.081C118.124,314.475 126.474,314.736 128.454,313.242C132.438,310.236 136.6,311.409 141.308,311.401C142.475,311.401 143.422,309.79 143.422,307.806L145.021,301.116Z" style="fill:rgb(168,168,168);"/>
        </g>
        <g transform="matrix(1.00488,-0.423207,0.490767,1.16529,-64.0042,-181.652)">
            <path d="M10.232,438.867C9.899,431.062 -28.353,425.389 -42.146,416.302C-48.92,411.839 -53.8,406.607 -53.337,404.102C-53.337,404.102 -64.986,582.923 -51.778,622.376C-46.689,637.58 -43.957,647.242 -22.179,657.298C-6.81,664.394 27.573,671.86 29.362,660.869C29.362,660.869 20.111,647.787 19.578,639.528C17.257,603.569 10.232,438.867 10.232,438.867Z" style="fill:rgb(219,214,220);stroke:rgb(54,54,54);stroke-width:4.72px;stroke-miterlimit:2;"/>
        </g>
        <g transform="matrix(1,0,0,0.817129,0,50.1802)">
            <path d="M133.92,277.282C128.649,279.757 122.595,282.955 118.571,287.479C115.454,290.982 113.485,295.255 113.484,300.454C113.484,302.592 114.2,305.046 115.423,307.355C117.018,310.365 119.444,313.151 121.545,314.624C129.766,320.388 142.224,320.09 151.675,316.539C155.123,315.244 168.427,311.658 173.921,297.094C178.339,285.382 175.284,279.558 174.008,273.546C173.622,271.724 172.1,270.629 170.611,271.102C169.123,271.575 168.228,273.438 168.614,275.259C169.642,280.105 172.422,284.796 168.861,294.235C164.276,306.391 152.917,308.938 150.039,310.019C141.974,313.05 131.331,313.625 124.315,308.707C122.861,307.687 121.203,305.729 120.1,303.646C119.524,302.558 119.057,301.461 119.057,300.454C119.057,296.308 121.264,293.256 124.124,290.736C127.566,287.704 131.999,285.488 135.916,283.649C137.352,282.974 138.07,281 137.519,279.243C136.968,277.486 135.355,276.607 133.92,277.282Z" style="fill:rgb(54,54,54);"/>
        </g>
        <g transform="matrix(0.838687,-0.38249,0.414943,0.909847,-128.788,83.3742)">
            <path d="M156.314,349.041L97.781,358.326L95.468,426.508C118.877,432.98 139.13,432.248 156.658,425.297L156.314,349.041Z" style="fill:rgb(128,128,128);"/>
        </g>
        <g transform="matrix(0.690561,-1.50303,0.611002,0.280723,-229.571,478.587)">
            <path d="M153.39,359.821L159.708,391.617L170.58,423.758L130.359,413.574L153.39,359.821Z" style="fill:rgb(38,38,38);"/>
        </g>
        <g transform="matrix(0.921863,-0.387516,0.387516,0.921863,-139.503,56.3677)">
            <path d="M156.84,452.814L155.455,371.309C155.455,371.309 136.561,373.186 124.477,369.409C114.341,366.24 101.141,358.702 102.298,356.685L99.379,448.884L99.379,452.587C99.379,452.587 117.697,456.078 124.831,456.439C134.838,456.946 156.84,452.814 156.84,452.814Z" style="fill:none;stroke:rgb(54,54,54);stroke-width:5.57px;stroke-miterlimit:2;"/>
        </g>
        <g transform="matrix(0.921863,-0.387516,0.387516,0.921863,-95.7351,168.075)">
            <path d="M146.29,453.393L144.123,366.3C144.123,366.3 135.199,368.152 122.74,365.909C115.227,364.556 100.784,361.421 101.941,359.404C102.186,390.944 103.294,419.977 104.751,452.026C104.751,452.026 117.651,455.985 124.793,455.866C131.456,455.755 146.29,453.393 146.29,453.393Z" style="fill:rgb(128,128,128);stroke:rgb(54,54,54);stroke-width:5.57px;stroke-miterlimit:2;"/>
        </g>
        <g transform="matrix(0.246571,-0.114036,0.419768,0.907631,-33.0717,22.4831)">
            <path d="M277.544,428.881C255.38,430.834 233.248,431.405 211.181,429.29L215.573,520.086C234.023,521.829 251.549,521.052 266.09,518.827C269.437,485.164 273.743,455.471 277.544,428.881Z" style="fill:rgb(128,128,128);stroke:rgb(54,54,54);stroke-width:7.61px;stroke-miterlimit:2;"/>
        </g>
        <g transform="matrix(2.05523,-0.909185,1.35134,3.05474,-813.462,-660.407)">
            <path d="M230.594,423.09C229.867,422.11 229.247,420.396 227.447,420.859C226.845,421.014 225.459,422.81 224.764,423.09L224.764,436.501L230.594,436.501L230.594,423.09Z" style="fill:rgb(38,38,38);"/>
        </g>
        <g transform="matrix(0.246571,-0.114036,0.419768,0.907631,-33.0717,22.4831)">
            <path d="M277.544,428.881C255.38,430.834 233.248,431.405 211.181,429.29L215.573,520.086C234.023,521.829 251.549,521.052 266.09,518.827C269.437,485.164 273.743,455.471 277.544,428.881Z" style="fill:none;stroke:rgb(54,54,54);stroke-width:7.61px;stroke-miterlimit:2;"/>
        </g>
        <g transform="matrix(0.922485,-0.438448,0.432318,0.909589,-214.061,118.013)">
            <path d="M168.336,483.168C174.262,483.168 179.074,487.617 179.074,493.097C179.074,498.577 174.262,503.027 168.336,503.027C162.41,503.027 162.41,483.168 168.336,483.168Z" style="fill:rgb(43,39,37);"/>
        </g>
        <g transform="matrix(0.612378,-0.790565,0.790565,0.612378,-349.082,348.193)">
            <ellipse cx="183.002" cy="524.407" rx="4.039" ry="5.835" style="fill:rgb(43,39,37);"/>
        </g>
        <g transform="matrix(-0.899407,-0.437112,0.529836,-1.0902,56.4077,1152.8)">
            <ellipse cx="183.002" cy="524.407" rx="4.039" ry="5.835" style="fill:rgb(43,39,37);"/>
        </g>
        <g transform="matrix(0.966676,0.534287,-0.376903,0.681923,202.573,65.6494)">
            <path d="M211.642,516.14L173.029,517.21L177.811,526.11L207.279,526.62L211.642,516.14Z" style="fill:rgb(62,62,62);"/>
        </g>
        <g transform="matrix(0.966676,0.534287,-0.376903,0.681923,193.896,78.0077)">
            <path d="M203.977,516.53L173.029,517.21L176.395,520.891L199.506,524.173L203.977,516.53Z" style="fill:rgb(62,62,62);"/>
        </g>
        <g transform="matrix(1.04888,-0.469098,0.408266,0.912863,-225.329,118.057)">
            <path d="M169.296,505.273C174.692,505.273 179.074,512.686 179.074,521.817C179.074,530.949 174.692,538.362 169.296,538.362C163.899,538.362 163.899,505.273 169.296,505.273Z" style="fill:rgb(43,39,37);"/>
        </g>
        <g transform="matrix(0.921863,-0.387516,0.387516,0.921863,-95.7351,168.075)">
            <path d="M146.29,453.393L144.123,366.3C144.123,366.3 135.199,368.152 122.74,365.909C115.227,364.556 100.784,361.421 101.941,359.404C102.186,390.944 103.294,419.977 104.751,452.026C104.751,452.026 117.651,455.985 124.793,455.866C131.456,455.755 146.29,453.393 146.29,453.393Z" style="fill:none;stroke:rgb(54,54,54);stroke-width:5.57px;stroke-miterlimit:2;"/>
        </g>
        <g transform="matrix(0.835549,-0.460832,0.222246,0.402961,-100.827,424.323)">
            <path d="M254.56,556.485C254.56,554.133 253.639,552.224 252.505,552.224C237.458,554.739 222.295,554.814 207.005,552.224C205.871,552.224 204.95,554.133 204.95,556.485C204.95,558.837 205.871,560.746 207.005,560.746C221.844,563.312 236.994,563.444 252.505,560.746C253.639,560.746 254.56,558.837 254.56,556.485Z" style="fill:rgb(62,62,62);"/>
        </g>
        <g transform="matrix(0.835549,-0.460832,0.222246,0.402961,-100.827,424.323)">
            <path d="M254.56,556.485C254.56,554.133 253.639,552.224 252.505,552.224C237.458,554.739 222.295,554.814 207.005,552.224C205.871,552.224 204.95,554.133 204.95,556.485C204.95,558.837 205.871,560.746 207.005,560.746C221.844,563.312 236.994,563.444 252.505,560.746C253.639,560.746 254.56,558.837 254.56,556.485Z" style="fill:rgb(78,78,78);"/>
        </g>
        <g transform="matrix(1.22724,-0.677938,0.310844,0.562709,-238.822,425.341)">
            <path d="M261.264,573.953C261.264,572.609 260.764,571.518 260.148,571.518C260.148,571.518 250.452,573.664 246.1,574C242.077,574.312 234.038,573.54 234.038,573.54C233.422,573.54 232.922,574.631 232.922,575.975C232.922,577.318 233.422,578.409 234.038,578.409C234.038,578.409 242.324,579.162 246.472,578.841C250.823,578.504 260.148,576.388 260.148,576.388C260.764,576.388 261.264,575.297 261.264,573.953Z" style="fill:rgb(78,78,78);"/>
        </g>
        <g transform="matrix(0.943547,-0.548157,0.369332,0.635733,-212.543,345.349)">
            <path d="M261.096,575.975C261.096,574.631 260.361,573.54 259.456,573.54C259.456,573.54 250.43,574.367 246.281,574.367C242.342,574.367 234.562,573.54 234.562,573.54C233.657,573.54 232.922,574.631 232.922,575.975C232.922,577.318 233.657,578.409 234.562,578.409C234.562,578.409 242.566,579.236 246.617,579.236C250.766,579.236 259.456,578.409 259.456,578.409C260.361,578.409 261.096,577.318 261.096,575.975Z" style="fill:rgb(78,78,78);"/>
        </g>
        <g transform="matrix(0.866512,-0.499156,0.357885,0.621273,-101.585,205.221)">
            <path d="M195.757,335.938C195.757,334.652 195.008,333.608 194.086,333.608C194.086,333.608 186.997,334.533 184.018,334.533C181.46,334.533 176.208,333.608 176.208,333.608C175.285,333.608 174.537,334.652 174.537,335.938C174.537,337.224 175.285,338.269 176.208,338.269C176.208,338.269 181.662,339.194 184.321,339.194C187.301,339.194 194.086,338.269 194.086,338.269C195.008,338.269 195.757,337.224 195.757,335.938Z" style="fill:rgb(78,78,78);"/>
        </g>
        <g transform="matrix(0.948243,-0.546237,0.357885,0.621273,-112.834,219.907)">
            <path d="M195.757,335.938C195.757,334.652 195.008,333.608 194.086,333.608C194.086,333.608 186.997,334.533 184.018,334.533C181.46,334.533 176.208,333.608 176.208,333.608C175.285,333.608 174.537,334.652 174.537,335.938C174.537,337.224 175.285,338.269 176.208,338.269C176.208,338.269 181.662,339.194 184.321,339.194C187.301,339.194 194.086,338.269 194.086,338.269C195.008,338.269 195.757,337.224 195.757,335.938Z" style="fill:rgb(78,78,78);"/>
        </g>
        <g transform="matrix(0.845784,-0.487216,0.357885,0.621273,-30.0607,362.589)">
            <path d="M195.757,335.938C195.757,334.652 195.008,333.608 194.086,333.608C194.086,333.608 186.997,334.533 184.018,334.533C181.46,334.533 176.208,333.608 176.208,333.608C175.285,333.608 174.537,334.652 174.537,335.938C174.537,337.224 175.285,338.269 176.208,338.269C176.208,338.269 181.662,339.194 184.321,339.194C187.301,339.194 194.086,338.269 194.086,338.269C195.008,338.269 195.757,337.224 195.757,335.938Z" style="fill:rgb(78,78,78);"/>
        </g>
        <g transform="matrix(0.845784,-0.487216,0.357885,0.621273,-28.5949,367.781)">
            <path d="M195.757,335.938C195.757,334.652 195.008,333.608 194.086,333.608C194.086,333.608 186.997,334.533 184.018,334.533C181.46,334.533 176.208,333.608 176.208,333.608C175.285,333.608 174.537,334.652 174.537,335.938C174.537,337.224 175.285,338.269 176.208,338.269C176.208,338.269 181.662,339.194 184.321,339.194C187.301,339.194 194.086,338.269 194.086,338.269C195.008,338.269 195.757,337.224 195.757,335.938Z" style="fill:rgb(78,78,78);"/>
        </g>
        <g transform="matrix(0.845784,-0.487216,0.357885,0.621273,-25.4802,372.911)">
            <path d="M195.757,335.938C195.757,334.652 195.008,333.608 194.086,333.608C194.086,333.608 186.997,334.533 184.018,334.533C181.46,334.533 176.208,333.608 176.208,333.608C175.285,333.608 174.537,334.652 174.537,335.938C174.537,337.224 175.285,338.269 176.208,338.269C176.208,338.269 181.662,339.194 184.321,339.194C187.301,339.194 194.086,338.269 194.086,338.269C195.008,338.269 195.757,337.224 195.757,335.938Z" style="fill:rgb(78,78,78);"/>
        </g>
        <g transform="matrix(0.845784,-0.487216,0.357885,0.621273,-20.8591,382.622)">
            <path d="M195.757,335.938C195.757,334.652 195.008,333.608 194.086,333.608C194.086,333.608 186.997,334.533 184.018,334.533C181.46,334.533 176.208,333.608 176.208,333.608C175.285,333.608 174.537,334.652 174.537,335.938C174.537,337.224 175.285,338.269 176.208,338.269C176.208,338.269 181.662,339.194 184.321,339.194C187.301,339.194 194.086,338.269 194.086,338.269C195.008,338.269 195.757,337.224 195.757,335.938Z" style="fill:rgb(78,78,78);"/>
        </g>
        <g transform="matrix(0.845784,-0.487216,0.357885,0.621273,-15.5458,393.493)">
            <path d="M195.757,335.938C195.757,334.652 195.008,333.608 194.086,333.608C194.086,333.608 186.997,334.533 184.018,334.533C181.46,334.533 176.208,333.608 176.208,333.608C175.285,333.608 174.537,334.652 174.537,335.938C174.537,337.224 175.285,338.269 176.208,338.269C176.208,338.269 181.662,339.194 184.321,339.194C187.301,339.194 194.086,338.269 194.086,338.269C195.008,338.269 195.757,337.224 195.757,335.938Z" style="fill:rgb(78,78,78);"/>
        </g>
        <g transform="matrix(0.845784,-0.487216,0.357885,0.621273,-10.8553,405.526)">
            <path d="M195.757,335.938C195.757,334.652 195.008,333.608 194.086,333.608C194.086,333.608 186.997,334.533 184.018,334.533C181.46,334.533 176.208,333.608 176.208,333.608C175.285,333.608 174.537,334.652 174.537,335.938C174.537,337.224 175.285,338.269 176.208,338.269C176.208,338.269 181.662,339.194 184.321,339.194C187.301,339.194 194.086,338.269 194.086,338.269C195.008,338.269 195.757,337.224 195.757,335.938Z" style="fill:rgb(78,78,78);"/>
        </g>
        <g transform="matrix(0.845784,-0.487216,0.357885,0.621273,-9.04147,410.06)">
            <path d="M195.757,335.938C195.757,334.652 195.008,333.608 194.086,333.608C194.086,333.608 186.997,334.533 184.018,334.533C181.46,334.533 176.208,333.608 176.208,333.608C175.285,333.608 174.537,334.652 174.537,335.938C174.537,337.224 175.285,338.269 176.208,338.269C176.208,338.269 181.662,339.194 184.321,339.194C187.301,339.194 194.086,338.269 194.086,338.269C195.008,338.269 195.757,337.224 195.757,335.938Z" style="fill:rgb(78,78,78);"/>
        </g>
        <g transform="matrix(0.845784,-0.487216,0.357885,0.621273,-18.243,387.477)">
            <path d="M195.757,335.938C195.757,334.652 195.008,333.608 194.086,333.608C194.086,333.608 186.997,334.533 184.018,334.533C181.46,334.533 176.208,333.608 176.208,333.608C175.285,333.608 174.537,334.652 174.537,335.938C174.537,337.224 175.285,338.269 176.208,338.269C176.208,338.269 181.662,339.194 184.321,339.194C187.301,339.194 194.086,338.269 194.086,338.269C195.008,338.269 195.757,337.224 195.757,335.938Z" style="fill:rgb(78,78,78);"/>
        </g>
        <g transform="matrix(0.948243,-0.546237,0.357885,0.621273,-110.089,230.205)">
            <path d="M195.757,335.938C195.757,334.652 195.008,333.608 194.086,333.608C194.086,333.608 186.997,334.533 184.018,334.533C181.46,334.533 176.208,333.608 176.208,333.608C175.285,333.608 174.537,334.652 174.537,335.938C174.537,337.224 175.285,338.269 176.208,338.269C176.208,338.269 181.662,339.194 184.321,339.194C187.301,339.194 194.086,338.269 194.086,338.269C195.008,338.269 195.757,337.224 195.757,335.938Z" style="fill:rgb(78,78,78);"/>
        </g>
        <g transform="matrix(-0.414143,1.01293,-0.663654,-0.27134,397.744,200.629)">
            <path d="M195.757,335.938C195.757,334.652 195.008,333.608 194.086,333.608C194.086,333.608 186.997,334.533 184.018,334.533C181.46,334.533 176.208,333.608 176.208,333.608C175.285,333.608 174.537,334.652 174.537,335.938C174.537,337.224 175.285,338.269 176.208,338.269C176.208,338.269 181.662,339.194 184.321,339.194C187.301,339.194 194.086,338.269 194.086,338.269C195.008,338.269 195.757,337.224 195.757,335.938Z" style="fill:rgb(78,78,78);"/>
        </g>
        <g transform="matrix(-0.214059,1.07318,-0.70313,-0.140248,381.232,151.644)">
            <path d="M195.757,335.938C195.757,334.652 195.008,333.608 194.086,333.608C194.086,333.608 186.997,334.533 184.018,334.533C181.46,334.533 176.208,333.608 176.208,333.608C175.285,333.608 174.537,334.652 174.537,335.938C174.537,337.224 175.285,338.269 176.208,338.269C176.208,338.269 181.662,339.194 184.321,339.194C187.301,339.194 194.086,338.269 194.086,338.269C195.008,338.269 195.757,337.224 195.757,335.938Z" style="fill:rgb(78,78,78);"/>
        </g>
        <g transform="matrix(-1.0934,-0.0448319,0.0293731,-0.716379,331.881,518.606)">
            <path d="M195.757,335.938C195.757,334.652 195.008,333.608 194.086,333.608C194.086,333.608 186.997,334.533 184.018,334.533C181.46,334.533 176.208,333.608 176.208,333.608C175.285,333.608 174.537,334.652 174.537,335.938C174.537,337.224 175.285,338.269 176.208,338.269C176.208,338.269 181.662,339.194 184.321,339.194C187.301,339.194 194.086,338.269 194.086,338.269C195.008,338.269 195.757,337.224 195.757,335.938Z" style="fill:rgb(78,78,78);"/>
        </g>
        <g transform="matrix(0.782774,-0.450919,0.357885,0.621273,-75.1582,217.114)">
            <path d="M195.757,335.938C195.757,334.652 195.008,333.608 194.086,333.608C194.086,333.608 186.997,334.533 184.018,334.533C181.46,334.533 176.208,333.608 176.208,333.608C175.285,333.608 174.537,334.652 174.537,335.938C174.537,337.224 175.285,338.269 176.208,338.269C176.208,338.269 181.662,339.194 184.321,339.194C187.301,339.194 194.086,338.269 194.086,338.269C195.008,338.269 195.757,337.224 195.757,335.938Z" style="fill:rgb(78,78,78);"/>
        </g>
        <g transform="matrix(0.835549,-0.460832,0.222246,0.402961,-104.862,435.327)">
            <path d="M254.56,556.485C254.56,554.133 253.639,552.224 252.505,552.224C244.39,553.58 236.018,556.213 227.835,555.977C215.663,555.625 214.049,553.417 207.005,552.224C205.871,552.224 204.95,554.133 204.95,556.485C204.95,558.837 205.871,560.746 207.005,560.746C214.367,562.019 215.821,563.892 229.102,564.568C236.739,564.956 244.689,562.106 252.505,560.746C253.639,560.746 254.56,558.837 254.56,556.485Z" style="fill:rgb(78,78,78);"/>
        </g>
        <g transform="matrix(0.835549,-0.460832,0.222246,0.402961,-100.827,441.632)">
            <path d="M254.56,556.485C254.56,554.133 253.639,552.224 252.505,552.224C244.39,553.58 236.018,556.213 227.835,555.977C215.663,555.625 214.049,553.417 207.005,552.224C205.871,552.224 204.95,554.133 204.95,556.485C204.95,558.837 205.871,560.746 207.005,560.746C214.367,562.019 215.821,563.892 229.102,564.568C236.739,564.956 244.689,562.106 252.505,560.746C253.639,560.746 254.56,558.837 254.56,556.485Z" style="fill:rgb(78,78,78);"/>
        </g>
        <g transform="matrix(0.835885,-0.270843,0.141849,0.437778,-117.286,264.684)">
            <path d="M254.56,556.485C254.56,554.133 253.639,552.224 252.505,552.224C244.39,553.58 236.018,556.213 227.835,555.977C215.663,555.625 214.049,553.417 207.005,552.224C205.871,552.224 204.95,554.133 204.95,556.485C204.95,558.837 205.871,560.746 207.005,560.746C214.367,562.019 215.821,563.892 229.102,564.568C236.739,564.956 244.689,562.106 252.505,560.746C253.639,560.746 254.56,558.837 254.56,556.485Z" style="fill:rgb(78,78,78);"/>
        </g>
        <g transform="matrix(0.907743,-0.294127,0.141849,0.437778,-133.168,261.381)">
            <path d="M254.56,556.485C254.56,554.133 253.639,552.224 252.505,552.224C244.39,553.58 236.018,556.213 227.835,555.977C215.663,555.625 214.049,553.417 207.005,552.224C205.871,552.224 204.95,554.133 204.95,556.485C204.95,558.837 205.871,560.746 207.005,560.746C214.367,562.019 215.821,563.892 229.102,564.568C236.739,564.956 244.689,562.106 252.505,560.746C253.639,560.746 254.56,558.837 254.56,556.485Z" style="fill:rgb(78,78,78);"/>
        </g>
        <g transform="matrix(0.7398,-0.408023,0.222246,0.402961,-73.8715,440.692)">
            <path d="M254.56,556.485C254.56,554.133 253.639,552.224 252.505,552.224C244.39,553.58 235.035,555.822 226.851,555.586C214.679,555.234 214.049,553.417 207.005,552.224C205.871,552.224 204.95,554.133 204.95,556.485C204.95,558.837 205.871,560.746 207.005,560.746C214.367,562.019 214.837,563.502 228.119,564.177C235.756,564.565 244.689,562.106 252.505,560.746C253.639,560.746 254.56,558.837 254.56,556.485Z" style="fill:rgb(78,78,78);"/>
        </g>
        <g transform="matrix(1.00488,-0.423207,0.490767,1.16529,-64.0042,-181.652)">
            <path d="M10.232,438.867C9.899,431.062 -28.353,425.389 -42.146,416.302C-48.92,411.839 -53.8,406.607 -53.337,404.102C-53.337,404.102 -64.986,582.923 -51.778,622.376C-46.689,637.58 -43.957,647.242 -22.179,657.298C-6.81,664.394 27.573,671.86 29.362,660.869C29.362,660.869 20.111,647.787 19.578,639.528C17.257,603.569 10.232,438.867 10.232,438.867Z" style="fill:none;stroke:rgb(54,54,54);stroke-width:4.72px;stroke-miterlimit:2;"/>
        </g>
        <g transform="matrix(1.18832,-0.500466,0.580359,1.37802,-111.702,-322.345)">
            <path d="M22.343,623.357L22.343,442.389C22.343,433.365 9.255,421.446 -17.755,421.446C-39.31,421.446 -53.5,433.365 -53.5,442.389L-57.411,544.095L-53.5,623.357" style="fill:none;stroke:rgb(54,54,54);stroke-width:3.99px;stroke-miterlimit:2;"/>
        </g>
        <g transform="matrix(0.806076,-1.41496,0.601971,0.342932,-221.434,466.246)">
            <path d="M170.915,381.649C170.915,380.57 170.543,379.695 170.084,379.695L152.855,379.695C152.396,379.695 152.023,380.57 152.023,381.649C152.023,382.728 152.396,383.603 152.855,383.603L170.084,383.603C170.543,383.603 170.915,382.728 170.915,381.649Z" style="fill:rgb(51,51,51);"/>
        </g>
        <g transform="matrix(0.806076,-1.41496,0.601971,0.342932,-221.434,477.928)">
            <path d="M170.915,381.649C170.915,380.57 170.543,379.695 170.084,379.695L152.855,379.695C152.396,379.695 152.023,380.57 152.023,381.649C152.023,382.728 152.396,383.603 152.855,383.603L170.084,383.603C170.543,383.603 170.915,382.728 170.915,381.649Z" style="fill:rgb(51,51,51);"/>
        </g>
        <g transform="matrix(0.806076,-1.41496,0.601971,0.342932,-215.664,477.928)">
            <path d="M170.915,381.649C170.915,380.57 170.543,379.695 170.084,379.695L152.855,379.695C152.396,379.695 152.023,380.57 152.023,381.649C152.023,382.728 152.396,383.603 152.855,383.603L170.084,383.603C170.543,383.603 170.915,382.728 170.915,381.649Z" style="fill:rgb(51,51,51);"/>
        </g>
        <g transform="matrix(0.806076,-1.41496,0.601971,0.342932,-215.664,487.793)">
            <path d="M170.915,381.649C170.915,380.57 170.543,379.695 170.084,379.695L152.855,379.695C152.396,379.695 152.023,380.57 152.023,381.649C152.023,382.728 152.396,383.603 152.855,383.603L170.084,383.603C170.543,383.603 170.915,382.728 170.915,381.649Z" style="fill:rgb(51,51,51);"/>
        </g>
        <g transform="matrix(0.806076,-1.41496,0.601971,0.342932,-209.894,487.793)">
            <path d="M170.915,381.649C170.915,380.57 170.543,379.695 170.084,379.695L152.855,379.695C152.396,379.695 152.023,380.57 152.023,381.649C152.023,382.728 152.396,383.603 152.855,383.603L170.084,383.603C170.543,383.603 170.915,382.728 170.915,381.649Z" style="fill:rgb(51,51,51);"/>
        </g>
        <g transform="matrix(0.806076,-1.41496,0.601971,0.342932,-207.366,491.471)">
            <path d="M170.915,381.649C170.915,380.57 170.543,379.695 170.084,379.695L152.855,379.695C152.396,379.695 152.023,380.57 152.023,381.649C152.023,382.728 152.396,383.603 152.855,383.603L170.084,383.603C170.543,383.603 170.915,382.728 170.915,381.649Z" style="fill:rgb(51,51,51);"/>
        </g>
        <g transform="matrix(0.806076,-1.41496,0.601971,0.342932,-205.132,496.311)">
            <path d="M170.915,381.649C170.915,380.57 170.543,379.695 170.084,379.695L152.855,379.695C152.396,379.695 152.023,380.57 152.023,381.649C152.023,382.728 152.396,383.603 152.855,383.603L170.084,383.603C170.543,383.603 170.915,382.728 170.915,381.649Z" style="fill:rgb(51,51,51);"/>
        </g>
        <g transform="matrix(0.806076,-1.41496,0.601971,0.342932,-205.132,505.015)">
            <path d="M170.915,381.649C170.915,380.57 170.543,379.695 170.084,379.695L152.855,379.695C152.396,379.695 152.023,380.57 152.023,381.649C152.023,382.728 152.396,383.603 152.855,383.603L170.084,383.603C170.543,383.603 170.915,382.728 170.915,381.649Z" style="fill:rgb(51,51,51);"/>
        </g>
        <g transform="matrix(0.661772,-1.16165,0.601971,0.342932,-175.767,465.369)">
            <path d="M170.915,381.649C170.915,380.57 170.461,379.695 169.902,379.695L153.036,379.695C152.477,379.695 152.023,380.57 152.023,381.649C152.023,382.728 152.477,383.603 153.036,383.603L169.902,383.603C170.461,383.603 170.915,382.728 170.915,381.649Z" style="fill:rgb(51,51,51);"/>
        </g>
        <g transform="matrix(0.393892,-0.691425,0.601971,0.342932,-126.962,390.701)">
            <path d="M170.915,381.649C170.915,380.57 170.153,379.695 169.214,379.695L153.725,379.695C152.786,379.695 152.023,380.57 152.023,381.649C152.023,382.728 152.786,383.603 153.725,383.603L169.214,383.603C170.153,383.603 170.915,382.728 170.915,381.649Z" style="fill:rgb(51,51,51);"/>
        </g>
    </g>
    <g transform="matrix(2.01415,0,0,2.01415,-1133.68,-472.563)">
        <g transform="matrix(27.9181,0,0,27.9181,979.592,430.01)">
            <path d="M0.35,-0.061C0.35,-0.02 0.329,-0 0.288,-0L0.1,-0C0.059,-0 0.038,-0.02 0.038,-0.061L0.038,-0.167L0.145,-0.167L0.145,-0.084L0.243,-0.084L0.243,-0.162L0.072,-0.263C0.049,-0.277 0.038,-0.294 0.038,-0.317L0.038,-0.432C0.038,-0.473 0.059,-0.493 0.101,-0.493L0.287,-0.493C0.328,-0.493 0.349,-0.473 0.349,-0.432L0.349,-0.333L0.243,-0.333L0.243,-0.409L0.145,-0.409L0.145,-0.338L0.316,-0.238C0.339,-0.225 0.35,-0.207 0.35,-0.183L0.35,-0.061Z" style="fill:rgb(204,204,204);fill-rule:nonzero;"/>
        </g>
        <g transform="matrix(27.9181,0,0,27.9181,990.43,430.01)">
            <path d="M0.359,-0.061C0.359,-0.02 0.338,-0 0.296,-0L0.103,-0C0.061,-0 0.04,-0.02 0.04,-0.061L0.04,-0.432C0.04,-0.473 0.061,-0.493 0.103,-0.493L0.296,-0.493C0.338,-0.493 0.359,-0.473 0.359,-0.432L0.359,-0.251L0.328,-0.22L0.147,-0.22L0.147,-0.082L0.252,-0.082L0.252,-0.164L0.359,-0.164L0.359,-0.061ZM0.252,-0.293L0.252,-0.411L0.147,-0.411L0.147,-0.293L0.252,-0.293Z" style="fill:rgb(204,204,204);fill-rule:nonzero;"/>
        </g>
        <g transform="matrix(27.9181,0,0,27.9181,1001.59,430.01)">
            <path d="M0.154,-0.564L0.042,-0.564L0.042,-0.679L0.154,-0.679L0.154,-0.564ZM0.153,-0L0.043,-0L0.043,-0.493L0.153,-0.493L0.153,-0Z" style="fill:rgb(204,204,204);fill-rule:nonzero;"/>
        </g>
        <g transform="matrix(27.9181,0,0,27.9181,1007.06,430.01)">
            <path d="M0.253,-0L0.129,-0C0.088,-0 0.067,-0.02 0.067,-0.061L0.067,-0.398L0.014,-0.398L0.014,-0.493L0.067,-0.493L0.067,-0.627L0.178,-0.627L0.178,-0.493L0.25,-0.493L0.25,-0.398L0.178,-0.398L0.178,-0.095L0.253,-0.095L0.253,-0Z" style="fill:rgb(204,204,204);fill-rule:nonzero;"/>
        </g>
        <g transform="matrix(27.9181,0,0,27.9181,1020.49,430.01)">
            <path d="M0.405,-0.547C0.405,-0.523 0.396,-0.496 0.38,-0.467L0.17,-0.1L0.404,-0.1L0.404,-0L0.033,-0L0.033,-0.071L0.292,-0.526L0.292,-0.667L0.153,-0.667L0.153,-0.525L0.041,-0.525L0.041,-0.695C0.041,-0.741 0.064,-0.764 0.111,-0.764L0.335,-0.764C0.382,-0.764 0.405,-0.741 0.405,-0.695L0.405,-0.547Z" style="fill:rgb(204,204,204);fill-rule:nonzero;"/>
        </g>
        <g transform="matrix(27.9181,0,0,27.9181,1032.8,430.01)">
            <path d="M0.421,-0.07C0.421,-0.023 0.398,-0 0.352,-0L0.114,-0C0.069,-0 0.046,-0.023 0.046,-0.07L0.046,-0.694C0.046,-0.741 0.069,-0.764 0.115,-0.764L0.352,-0.764C0.398,-0.764 0.421,-0.741 0.421,-0.694L0.421,-0.07ZM0.309,-0.098L0.309,-0.666L0.158,-0.666L0.158,-0.098L0.309,-0.098Z" style="fill:rgb(204,204,204);fill-rule:nonzero;"/>
        </g>
        <g transform="matrix(27.9181,0,0,27.9181,1045.83,430.01)">
            <path d="M0.184,-0L0.072,-0L0.072,-0.539L0.028,-0.539L0.028,-0.554L0.087,-0.764L0.184,-0.764L0.184,-0Z" style="fill:rgb(204,204,204);fill-rule:nonzero;"/>
        </g>
        <g transform="matrix(27.9181,0,0,27.9181,1052.39,430.01)">
            <path d="M0.184,-0L0.072,-0L0.072,-0.539L0.028,-0.539L0.028,-0.554L0.087,-0.764L0.184,-0.764L0.184,-0Z" style="fill:rgb(204,204,204);fill-rule:nonzero;"/>
        </g>
        <g transform="matrix(27.9181,0,0,27.9181,1064.7,430.01)">
            <path d="M0.365,-0.061C0.365,-0.02 0.345,-0 0.303,-0L0.103,-0C0.061,-0 0.04,-0.02 0.04,-0.061L0.04,-0.432C0.04,-0.473 0.061,-0.493 0.103,-0.493L0.303,-0.493C0.345,-0.493 0.365,-0.473 0.365,-0.432L0.365,-0.061ZM0.256,-0.093L0.256,-0.4L0.15,-0.4L0.15,-0.093L0.256,-0.093Z" style="fill:rgb(204,204,204);fill-rule:nonzero;"/>
        </g>
        <g transform="matrix(27.9181,0,0,27.9181,1076.02,430.01)">
            <path d="M0.257,-0.667L0.175,-0.667L0.175,-0.493L0.246,-0.493L0.246,-0.398L0.175,-0.398L0.175,-0L0.064,-0L0.064,-0.398L0.013,-0.398L0.013,-0.493L0.064,-0.493L0.064,-0.703C0.064,-0.744 0.085,-0.764 0.126,-0.764L0.257,-0.764L0.257,-0.667Z" style="fill:rgb(204,204,204);fill-rule:nonzero;"/>
        </g>
        <g transform="matrix(27.9181,0,0,27.9181,1083.22,430.01)">
            <path d="M0.408,-0L0.297,-0L0.297,-0.398L0.175,-0.398L0.175,-0L0.064,-0L0.064,-0.398L0.013,-0.398L0.013,-0.493L0.064,-0.493L0.064,-0.703C0.064,-0.744 0.085,-0.764 0.126,-0.764L0.346,-0.764C0.388,-0.764 0.408,-0.744 0.408,-0.703L0.408,-0.564L0.297,-0.564L0.297,-0.667L0.175,-0.667L0.175,-0.493L0.408,-0.493L0.408,-0Z" style="fill:rgb(204,204,204);fill-rule:nonzero;"/>
        </g>
        <g transform="matrix(27.9181,0,0,27.9181,1095.82,430.01)">
            <path d="M0.319,-0L0.022,-0L0.022,-0.066L0.186,-0.402L0.035,-0.402L0.035,-0.493L0.319,-0.493L0.319,-0.427L0.154,-0.091L0.319,-0.091L0.319,-0Z" style="fill:rgb(204,204,204);fill-rule:nonzero;"/>
        </g>
        <g transform="matrix(27.9181,0,0,27.9181,1105.51,430.01)">
            <path d="M0.154,-0.564L0.042,-0.564L0.042,-0.679L0.154,-0.679L0.154,-0.564ZM0.153,-0L0.043,-0L0.043,-0.493L0.153,-0.493L0.153,-0Z" style="fill:rgb(204,204,204);fill-rule:nonzero;"/>
        </g>
        <g transform="matrix(27.9181,0,0,27.9181,1110.98,430.01)">
            <path d="M0.359,-0.061C0.359,-0.02 0.338,-0 0.296,-0L0.103,-0C0.061,-0 0.04,-0.02 0.04,-0.061L0.04,-0.432C0.04,-0.473 0.061,-0.493 0.103,-0.493L0.296,-0.493C0.338,-0.493 0.359,-0.473 0.359,-0.432L0.359,-0.251L0.328,-0.22L0.147,-0.22L0.147,-0.082L0.252,-0.082L0.252,-0.164L0.359,-0.164L0.359,-0.061ZM0.252,-0.293L0.252,-0.411L0.147,-0.411L0.147,-0.293L0.252,-0.293Z" style="fill:rgb(204,204,204);fill-rule:nonzero;"/>
        </g>
        <g transform="matrix(27.9181,0,0,27.9181,1122.14,430.01)">
            <rect x="0.043" y="-0.764" width="0.11" height="0.764" style="fill:rgb(204,204,204);fill-rule:nonzero;"/>
        </g>
        <g transform="matrix(27.9181,0,0,27.9181,1127.61,430.01)">
            <rect x="0.043" y="-0.764" width="0.11" height="0.764" style="fill:rgb(204,204,204);fill-rule:nonzero;"/>
        </g>
        <g transform="matrix(27.9181,0,0,27.9181,1133.07,430.01)">
            <path d="M0.359,-0.061C0.359,-0.02 0.338,-0 0.296,-0L0.103,-0C0.061,-0 0.04,-0.02 0.04,-0.061L0.04,-0.432C0.04,-0.473 0.061,-0.493 0.103,-0.493L0.296,-0.493C0.338,-0.493 0.359,-0.473 0.359,-0.432L0.359,-0.251L0.328,-0.22L0.147,-0.22L0.147,-0.082L0.252,-0.082L0.252,-0.164L0.359,-0.164L0.359,-0.061ZM0.252,-0.293L0.252,-0.411L0.147,-0.411L0.147,-0.293L0.252,-0.293Z" style="fill:rgb(204,204,204);fill-rule:nonzero;"/>
        </g>
        <g transform="matrix(27.9181,0,0,27.9181,1149.99,430.01)">
            <path d="M0.412,-0.07C0.412,-0.023 0.389,-0 0.343,-0L0.113,-0C0.067,-0 0.044,-0.023 0.044,-0.07L0.044,-0.252L0.158,-0.252L0.158,-0.096L0.298,-0.096L0.298,-0.246L0.069,-0.463C0.052,-0.479 0.044,-0.499 0.044,-0.524L0.044,-0.694C0.044,-0.741 0.067,-0.764 0.113,-0.764L0.343,-0.764C0.389,-0.764 0.412,-0.741 0.412,-0.695L0.412,-0.524L0.298,-0.524L0.298,-0.668L0.158,-0.668L0.158,-0.53L0.387,-0.314C0.404,-0.298 0.412,-0.278 0.412,-0.252L0.412,-0.07Z" style="fill:rgb(204,204,204);fill-rule:nonzero;"/>
        </g>
        <g transform="matrix(27.9181,0,0,27.9181,1162.75,430.01)">
            <path d="M0.359,-0.061C0.359,-0.02 0.338,-0 0.297,-0L0.103,-0C0.061,-0 0.04,-0.02 0.04,-0.061L0.04,-0.432C0.04,-0.473 0.061,-0.493 0.103,-0.493L0.297,-0.493C0.338,-0.493 0.359,-0.473 0.359,-0.432L0.359,-0.315L0.25,-0.315L0.25,-0.4L0.15,-0.4L0.15,-0.093L0.25,-0.093L0.25,-0.187L0.359,-0.187L0.359,-0.061Z" style="fill:rgb(204,204,204);fill-rule:nonzero;"/>
        </g>
        <g transform="matrix(27.9181,0,0,27.9181,1173.89,430.01)">
            <path d="M0.369,-0L0.257,-0L0.257,-0.4L0.152,-0.398L0.152,-0L0.04,-0L0.04,-0.764L0.152,-0.764L0.152,-0.475C0.178,-0.479 0.204,-0.483 0.23,-0.487C0.263,-0.493 0.289,-0.495 0.308,-0.495C0.349,-0.495 0.369,-0.475 0.369,-0.435L0.369,-0Z" style="fill:rgb(204,204,204);fill-rule:nonzero;"/>
        </g>
        <g transform="matrix(27.9181,0,0,27.9181,1185.31,430.01)">
            <path d="M0.368,-0L0.257,-0L0.257,-0.017C0.231,-0.013 0.205,-0.009 0.179,-0.004C0.148,0 0.122,0.003 0.101,0.003C0.06,0.003 0.04,-0.017 0.04,-0.058L0.04,-0.493L0.151,-0.493L0.151,-0.093L0.257,-0.095L0.257,-0.493L0.368,-0.493L0.368,-0ZM0.333,-0.526L0.226,-0.526L0.226,-0.631L0.333,-0.631L0.333,-0.526ZM0.184,-0.526L0.077,-0.526L0.077,-0.631L0.184,-0.631L0.184,-0.526Z" style="fill:rgb(204,204,204);fill-rule:nonzero;"/>
        </g>
        <g transform="matrix(27.9181,0,0,27.9181,1196.73,430.01)">
            <rect x="0.043" y="-0.764" width="0.11" height="0.764" style="fill:rgb(204,204,204);fill-rule:nonzero;"/>
        </g>
        <g transform="matrix(27.9181,0,0,27.9181,1202.2,430.01)">
            <path d="M0.359,-0.061C0.359,-0.02 0.338,-0 0.296,-0L0.103,-0C0.061,-0 0.04,-0.02 0.04,-0.061L0.04,-0.432C0.04,-0.473 0.061,-0.493 0.103,-0.493L0.296,-0.493C0.338,-0.493 0.359,-0.473 0.359,-0.432L0.359,-0.251L0.328,-0.22L0.147,-0.22L0.147,-0.082L0.252,-0.082L0.252,-0.164L0.359,-0.164L0.359,-0.061ZM0.252,-0.293L0.252,-0.411L0.147,-0.411L0.147,-0.293L0.252,-0.293Z" style="fill:rgb(204,204,204);fill-rule:nonzero;"/>
        </g>
        <g transform="matrix(27.9181,0,0,27.9181,1213.37,430.01)">
            <path d="M0.351,-0.287L0.24,-0.287L0.24,-0.4L0.152,-0.398L0.152,-0L0.04,-0L0.04,-0.493L0.152,-0.493L0.152,-0.475C0.175,-0.479 0.198,-0.484 0.221,-0.488C0.248,-0.493 0.271,-0.495 0.29,-0.495C0.331,-0.495 0.351,-0.475 0.351,-0.435L0.351,-0.287Z" style="fill:rgb(204,204,204);fill-rule:nonzero;"/>
        </g>
        <g transform="matrix(27.9181,0,0,27.9181,1223.81,430.01)">
            <path d="M0.319,-0L0.022,-0L0.022,-0.066L0.186,-0.402L0.035,-0.402L0.035,-0.493L0.319,-0.493L0.319,-0.427L0.154,-0.091L0.319,-0.091L0.319,-0Z" style="fill:rgb(204,204,204);fill-rule:nonzero;"/>
        </g>
        <g transform="matrix(27.9181,0,0,27.9181,1233.5,430.01)">
            <path d="M0.359,-0.061C0.359,-0.02 0.338,-0 0.296,-0L0.103,-0C0.061,-0 0.04,-0.02 0.04,-0.061L0.04,-0.432C0.04,-0.473 0.061,-0.493 0.103,-0.493L0.296,-0.493C0.338,-0.493 0.359,-0.473 0.359,-0.432L0.359,-0.251L0.328,-0.22L0.147,-0.22L0.147,-0.082L0.252,-0.082L0.252,-0.164L0.359,-0.164L0.359,-0.061ZM0.252,-0.293L0.252,-0.411L0.147,-0.411L0.147,-0.293L0.252,-0.293Z" style="fill:rgb(204,204,204);fill-rule:nonzero;"/>
        </g>
        <g transform="matrix(27.9181,0,0,27.9181,1244.66,430.01)">
            <path d="M0.154,-0.564L0.042,-0.564L0.042,-0.679L0.154,-0.679L0.154,-0.564ZM0.153,-0L0.043,-0L0.043,-0.493L0.153,-0.493L0.153,-0Z" style="fill:rgb(204,204,204);fill-rule:nonzero;"/>
        </g>
        <g transform="matrix(27.9181,0,0,27.9181,1250.13,430.01)">
            <path d="M0.253,-0L0.129,-0C0.088,-0 0.067,-0.02 0.067,-0.061L0.067,-0.398L0.014,-0.398L0.014,-0.493L0.067,-0.493L0.067,-0.627L0.178,-0.627L0.178,-0.493L0.25,-0.493L0.25,-0.398L0.178,-0.398L0.178,-0.095L0.253,-0.095L0.253,-0Z" style="fill:rgb(204,204,204);fill-rule:nonzero;"/>
        </g>
        <g transform="matrix(27.9181,0,0,27.9181,1257.81,430.01)">
            <path d="M0.368,-0L0.257,-0L0.257,-0.017C0.231,-0.013 0.205,-0.009 0.179,-0.004C0.148,0 0.122,0.003 0.101,0.003C0.06,0.003 0.04,-0.017 0.04,-0.058L0.04,-0.493L0.151,-0.493L0.151,-0.093L0.257,-0.095L0.257,-0.493L0.368,-0.493L0.368,-0Z" style="fill:rgb(204,204,204);fill-rule:nonzero;"/>
        </g>
        <g transform="matrix(27.9181,0,0,27.9181,1269.23,430.01)">
            <path d="M0.369,-0L0.257,-0L0.257,-0.4L0.152,-0.398L0.152,-0L0.04,-0L0.04,-0.493L0.152,-0.493L0.152,-0.475C0.178,-0.479 0.204,-0.483 0.229,-0.487C0.261,-0.493 0.288,-0.495 0.308,-0.495C0.349,-0.495 0.369,-0.475 0.369,-0.435L0.369,-0Z" style="fill:rgb(204,204,204);fill-rule:nonzero;"/>
        </g>
        <g transform="matrix(27.9181,0,0,27.9181,1280.65,430.01)">
            <path d="M0.367,0.119C0.367,0.16 0.346,0.18 0.304,0.18L0.11,0.18C0.068,0.18 0.047,0.16 0.047,0.119L0.047,0.04L0.155,0.04L0.155,0.099L0.256,0.099L0.256,-0.003L0.141,-0.003C0.11,-0.003 0.085,-0.012 0.067,-0.029C0.048,-0.047 0.039,-0.071 0.039,-0.102L0.039,-0.404C0.039,-0.432 0.047,-0.454 0.063,-0.471C0.079,-0.487 0.101,-0.495 0.129,-0.495C0.143,-0.495 0.185,-0.488 0.256,-0.475L0.256,-0.493L0.367,-0.493L0.367,0.119ZM0.256,-0.093L0.256,-0.396C0.218,-0.4 0.195,-0.402 0.186,-0.402C0.162,-0.402 0.15,-0.39 0.15,-0.366L0.15,-0.13C0.15,-0.105 0.162,-0.093 0.187,-0.093L0.256,-0.093Z" style="fill:rgb(204,204,204);fill-rule:nonzero;"/>
        </g>
        <g transform="matrix(27.9181,0,0,27.9181,1297.8,430.01)">
            <path d="M0.367,-0L0.256,-0L0.256,-0.017C0.18,-0.004 0.138,0.003 0.129,0.003C0.101,0.003 0.079,-0.005 0.063,-0.022C0.047,-0.038 0.039,-0.061 0.039,-0.089L0.039,-0.394C0.039,-0.434 0.053,-0.462 0.082,-0.478C0.103,-0.489 0.134,-0.495 0.177,-0.495C0.186,-0.495 0.2,-0.495 0.218,-0.494C0.236,-0.493 0.248,-0.493 0.256,-0.493L0.256,-0.764L0.367,-0.764L0.367,-0ZM0.256,-0.096L0.256,-0.4L0.187,-0.4C0.162,-0.4 0.15,-0.388 0.15,-0.363L0.15,-0.127C0.15,-0.103 0.162,-0.091 0.185,-0.091C0.191,-0.091 0.214,-0.093 0.256,-0.096Z" style="fill:rgb(204,204,204);fill-rule:nonzero;"/>
        </g>
        <g transform="matrix(27.9181,0,0,27.9181,1309.2,430.01)">
            <path d="M0.359,-0.061C0.359,-0.02 0.338,-0 0.296,-0L0.103,-0C0.061,-0 0.04,-0.02 0.04,-0.061L0.04,-0.432C0.04,-0.473 0.061,-0.493 0.103,-0.493L0.296,-0.493C0.338,-0.493 0.359,-0.473 0.359,-0.432L0.359,-0.251L0.328,-0.22L0.147,-0.22L0.147,-0.082L0.252,-0.082L0.252,-0.164L0.359,-0.164L0.359,-0.061ZM0.252,-0.293L0.252,-0.411L0.147,-0.411L0.147,-0.293L0.252,-0.293Z" style="fill:rgb(204,204,204);fill-rule:nonzero;"/>
        </g>
        <g transform="matrix(27.9181,0,0,27.9181,1320.36,430.01)">
            <path d="M0.35,-0.061C0.35,-0.02 0.329,-0 0.288,-0L0.1,-0C0.059,-0 0.038,-0.02 0.038,-0.061L0.038,-0.167L0.145,-0.167L0.145,-0.084L0.243,-0.084L0.243,-0.162L0.072,-0.263C0.049,-0.277 0.038,-0.294 0.038,-0.317L0.038,-0.432C0.038,-0.473 0.059,-0.493 0.101,-0.493L0.287,-0.493C0.328,-0.493 0.349,-0.473 0.349,-0.432L0.349,-0.333L0.243,-0.333L0.243,-0.409L0.145,-0.409L0.145,-0.338L0.316,-0.238C0.339,-0.225 0.35,-0.207 0.35,-0.183L0.35,-0.061Z" style="fill:rgb(204,204,204);fill-rule:nonzero;"/>
        </g>
        <g transform="matrix(27.9181,0,0,27.9181,979.592,457.928)">
            <path d="M0.424,-0.07C0.424,-0.023 0.401,-0 0.354,-0L0.114,-0C0.069,-0 0.046,-0.023 0.046,-0.07L0.046,-0.694C0.046,-0.741 0.069,-0.764 0.115,-0.764L0.354,-0.764C0.401,-0.764 0.424,-0.741 0.424,-0.694L0.424,-0.531L0.309,-0.531L0.309,-0.666L0.16,-0.666L0.16,-0.098L0.309,-0.098L0.309,-0.312L0.224,-0.312L0.224,-0.409L0.424,-0.409L0.424,-0.07Z" style="fill:rgb(204,204,204);fill-rule:nonzero;"/>
        </g>
        <g transform="matrix(27.9181,0,0,27.9181,992.693,457.928)">
            <path d="M0.374,-0.493L0.25,-0.006L0.203,0.18L0.089,0.18L0.14,-0.004L0.015,-0.493L0.13,-0.493L0.195,-0.169L0.26,-0.493L0.374,-0.493Z" style="fill:rgb(204,204,204);fill-rule:nonzero;"/>
        </g>
        <g transform="matrix(27.9181,0,0,27.9181,1003.56,457.928)">
            <path d="M0.584,-0L0.473,-0L0.473,-0.4L0.368,-0.398L0.368,-0L0.257,-0L0.257,-0.4L0.152,-0.398L0.152,-0L0.04,-0L0.04,-0.493L0.152,-0.493L0.152,-0.475C0.178,-0.479 0.204,-0.484 0.229,-0.488C0.261,-0.493 0.287,-0.495 0.308,-0.495C0.334,-0.495 0.35,-0.488 0.358,-0.473C0.385,-0.477 0.413,-0.482 0.44,-0.486C0.476,-0.492 0.504,-0.495 0.523,-0.495C0.564,-0.495 0.584,-0.475 0.584,-0.435L0.584,-0Z" style="fill:rgb(204,204,204);fill-rule:nonzero;"/>
        </g>
        <g transform="matrix(27.9181,0,0,27.9181,1020.98,457.928)">
            <path d="M0.369,-0L0.257,-0L0.257,-0.4L0.152,-0.398L0.152,-0L0.04,-0L0.04,-0.493L0.152,-0.493L0.152,-0.475C0.178,-0.479 0.204,-0.483 0.229,-0.487C0.261,-0.493 0.288,-0.495 0.308,-0.495C0.349,-0.495 0.369,-0.475 0.369,-0.435L0.369,-0Z" style="fill:rgb(204,204,204);fill-rule:nonzero;"/>
        </g>
        <g transform="matrix(27.9181,0,0,27.9181,1032.4,457.928)">
            <path d="M0.358,-0L0.251,-0L0.251,-0.017C0.226,-0.013 0.2,-0.009 0.175,-0.005C0.142,-0 0.116,0.002 0.099,0.002C0.058,0.002 0.038,-0.018 0.038,-0.058L0.038,-0.236C0.038,-0.277 0.059,-0.297 0.101,-0.297L0.252,-0.297L0.252,-0.41L0.145,-0.41L0.145,-0.34L0.044,-0.34L0.044,-0.432C0.044,-0.473 0.065,-0.493 0.107,-0.493L0.296,-0.493C0.337,-0.493 0.358,-0.473 0.358,-0.432L0.358,-0ZM0.252,-0.089L0.252,-0.221L0.145,-0.221L0.145,-0.085L0.252,-0.089Z" style="fill:rgb(204,204,204);fill-rule:nonzero;"/>
        </g>
        <g transform="matrix(27.9181,0,0,27.9181,1043.51,457.928)">
            <path d="M0.35,-0.061C0.35,-0.02 0.329,-0 0.288,-0L0.1,-0C0.059,-0 0.038,-0.02 0.038,-0.061L0.038,-0.167L0.145,-0.167L0.145,-0.084L0.243,-0.084L0.243,-0.162L0.072,-0.263C0.049,-0.277 0.038,-0.294 0.038,-0.317L0.038,-0.432C0.038,-0.473 0.059,-0.493 0.101,-0.493L0.287,-0.493C0.328,-0.493 0.349,-0.473 0.349,-0.432L0.349,-0.333L0.243,-0.333L0.243,-0.409L0.145,-0.409L0.145,-0.338L0.316,-0.238C0.339,-0.225 0.35,-0.207 0.35,-0.183L0.35,-0.061Z" style="fill:rgb(204,204,204);fill-rule:nonzero;"/>
        </g>
        <g transform="matrix(27.9181,0,0,27.9181,1054.35,457.928)">
            <path d="M0.154,-0.564L0.042,-0.564L0.042,-0.679L0.154,-0.679L0.154,-0.564ZM0.153,-0L0.043,-0L0.043,-0.493L0.153,-0.493L0.153,-0Z" style="fill:rgb(204,204,204);fill-rule:nonzero;"/>
        </g>
        <g transform="matrix(27.9181,0,0,27.9181,1059.82,457.928)">
            <path d="M0.368,-0L0.257,-0L0.257,-0.017C0.231,-0.013 0.205,-0.009 0.179,-0.004C0.148,0 0.122,0.003 0.101,0.003C0.06,0.003 0.04,-0.017 0.04,-0.058L0.04,-0.493L0.151,-0.493L0.151,-0.093L0.257,-0.095L0.257,-0.493L0.368,-0.493L0.368,-0Z" style="fill:rgb(204,204,204);fill-rule:nonzero;"/>
        </g>
        <g transform="matrix(27.9181,0,0,27.9181,1071.24,457.928)">
            <path d="M0.584,-0L0.473,-0L0.473,-0.4L0.368,-0.398L0.368,-0L0.257,-0L0.257,-0.4L0.152,-0.398L0.152,-0L0.04,-0L0.04,-0.493L0.152,-0.493L0.152,-0.475C0.178,-0.479 0.204,-0.484 0.229,-0.488C0.261,-0.493 0.287,-0.495 0.308,-0.495C0.334,-0.495 0.35,-0.488 0.358,-0.473C0.385,-0.477 0.413,-0.482 0.44,-0.486C0.476,-0.492 0.504,-0.495 0.523,-0.495C0.564,-0.495 0.584,-0.475 0.584,-0.435L0.584,-0Z" style="fill:rgb(204,204,204);fill-rule:nonzero;"/>
        </g>
        <g transform="matrix(27.9181,0,0,27.9181,1094.41,457.928)">
            <path d="M0.367,-0L0.256,-0L0.256,-0.017C0.18,-0.004 0.138,0.003 0.129,0.003C0.101,0.003 0.079,-0.005 0.063,-0.022C0.047,-0.038 0.039,-0.061 0.039,-0.089L0.039,-0.394C0.039,-0.434 0.053,-0.462 0.082,-0.478C0.103,-0.489 0.134,-0.495 0.177,-0.495C0.186,-0.495 0.2,-0.495 0.218,-0.494C0.236,-0.493 0.248,-0.493 0.256,-0.493L0.256,-0.764L0.367,-0.764L0.367,-0ZM0.256,-0.096L0.256,-0.4L0.187,-0.4C0.162,-0.4 0.15,-0.388 0.15,-0.363L0.15,-0.127C0.15,-0.103 0.162,-0.091 0.185,-0.091C0.191,-0.091 0.214,-0.093 0.256,-0.096Z" style="fill:rgb(204,204,204);fill-rule:nonzero;"/>
        </g>
        <g transform="matrix(27.9181,0,0,27.9181,1105.81,457.928)">
            <path d="M0.359,-0.061C0.359,-0.02 0.338,-0 0.296,-0L0.103,-0C0.061,-0 0.04,-0.02 0.04,-0.061L0.04,-0.432C0.04,-0.473 0.061,-0.493 0.103,-0.493L0.296,-0.493C0.338,-0.493 0.359,-0.473 0.359,-0.432L0.359,-0.251L0.328,-0.22L0.147,-0.22L0.147,-0.082L0.252,-0.082L0.252,-0.164L0.359,-0.164L0.359,-0.061ZM0.252,-0.293L0.252,-0.411L0.147,-0.411L0.147,-0.293L0.252,-0.293Z" style="fill:rgb(204,204,204);fill-rule:nonzero;"/>
        </g>
        <g transform="matrix(27.9181,0,0,27.9181,1116.97,457.928)">
            <path d="M0.351,-0.287L0.24,-0.287L0.24,-0.4L0.152,-0.398L0.152,-0L0.04,-0L0.04,-0.493L0.152,-0.493L0.152,-0.475C0.175,-0.479 0.198,-0.484 0.221,-0.488C0.248,-0.493 0.271,-0.495 0.29,-0.495C0.331,-0.495 0.351,-0.475 0.351,-0.435L0.351,-0.287Z" style="fill:rgb(204,204,204);fill-rule:nonzero;"/>
        </g>
        <g transform="matrix(27.9181,0,0,27.9181,1133.17,457.928)">
            <path d="M0.412,-0.07C0.412,-0.023 0.389,-0 0.343,-0L0.113,-0C0.067,-0 0.044,-0.023 0.044,-0.07L0.044,-0.252L0.158,-0.252L0.158,-0.096L0.298,-0.096L0.298,-0.246L0.069,-0.463C0.052,-0.479 0.044,-0.499 0.044,-0.524L0.044,-0.694C0.044,-0.741 0.067,-0.764 0.113,-0.764L0.343,-0.764C0.389,-0.764 0.412,-0.741 0.412,-0.695L0.412,-0.524L0.298,-0.524L0.298,-0.668L0.158,-0.668L0.158,-0.53L0.387,-0.314C0.404,-0.298 0.412,-0.278 0.412,-0.252L0.412,-0.07Z" style="fill:rgb(204,204,204);fill-rule:nonzero;"/>
        </g>
        <g transform="matrix(27.9181,0,0,27.9181,1145.93,457.928)">
            <path d="M0.253,-0L0.129,-0C0.088,-0 0.067,-0.02 0.067,-0.061L0.067,-0.398L0.014,-0.398L0.014,-0.493L0.067,-0.493L0.067,-0.627L0.178,-0.627L0.178,-0.493L0.25,-0.493L0.25,-0.398L0.178,-0.398L0.178,-0.095L0.253,-0.095L0.253,-0Z" style="fill:rgb(204,204,204);fill-rule:nonzero;"/>
        </g>
        <g transform="matrix(27.9181,0,0,27.9181,1153.6,457.928)">
            <path d="M0.358,-0L0.251,-0L0.251,-0.017C0.226,-0.013 0.2,-0.009 0.175,-0.005C0.142,-0 0.116,0.002 0.099,0.002C0.058,0.002 0.038,-0.018 0.038,-0.058L0.038,-0.236C0.038,-0.277 0.059,-0.297 0.101,-0.297L0.252,-0.297L0.252,-0.41L0.145,-0.41L0.145,-0.34L0.044,-0.34L0.044,-0.432C0.044,-0.473 0.065,-0.493 0.107,-0.493L0.296,-0.493C0.337,-0.493 0.358,-0.473 0.358,-0.432L0.358,-0ZM0.252,-0.089L0.252,-0.221L0.145,-0.221L0.145,-0.085L0.252,-0.089Z" style="fill:rgb(204,204,204);fill-rule:nonzero;"/>
        </g>
        <g transform="matrix(27.9181,0,0,27.9181,1164.71,457.928)">
            <path d="M0.367,-0L0.256,-0L0.256,-0.017C0.18,-0.004 0.138,0.003 0.129,0.003C0.101,0.003 0.079,-0.005 0.063,-0.022C0.047,-0.038 0.039,-0.061 0.039,-0.089L0.039,-0.394C0.039,-0.434 0.053,-0.462 0.082,-0.478C0.103,-0.489 0.134,-0.495 0.177,-0.495C0.186,-0.495 0.2,-0.495 0.218,-0.494C0.236,-0.493 0.248,-0.493 0.256,-0.493L0.256,-0.764L0.367,-0.764L0.367,-0ZM0.256,-0.096L0.256,-0.4L0.187,-0.4C0.162,-0.4 0.15,-0.388 0.15,-0.363L0.15,-0.127C0.15,-0.103 0.162,-0.091 0.185,-0.091C0.191,-0.091 0.214,-0.093 0.256,-0.096Z" style="fill:rgb(204,204,204);fill-rule:nonzero;"/>
        </g>
        <g transform="matrix(27.9181,0,0,27.9181,1176.11,457.928)">
            <path d="M0.253,-0L0.129,-0C0.088,-0 0.067,-0.02 0.067,-0.061L0.067,-0.398L0.014,-0.398L0.014,-0.493L0.067,-0.493L0.067,-0.627L0.178,-0.627L0.178,-0.493L0.25,-0.493L0.25,-0.398L0.178,-0.398L0.178,-0.095L0.253,-0.095L0.253,-0Z" style="fill:rgb(204,204,204);fill-rule:nonzero;"/>
        </g>
        <g transform="matrix(27.9181,0,0,27.9181,1189.54,457.928)">
            <path d="M0.61,-0.764L0.498,0.001L0.386,0.001L0.318,-0.432C0.317,-0.448 0.316,-0.471 0.314,-0.502C0.314,-0.486 0.313,-0.463 0.31,-0.432L0.242,0.001L0.13,0.001L0.018,-0.764L0.134,-0.764L0.193,-0.311C0.194,-0.295 0.195,-0.272 0.197,-0.241C0.197,-0.257 0.199,-0.28 0.201,-0.311L0.267,-0.764L0.361,-0.764L0.427,-0.311C0.428,-0.295 0.429,-0.272 0.431,-0.241C0.431,-0.257 0.433,-0.28 0.435,-0.311L0.494,-0.764L0.61,-0.764Z" style="fill:rgb(204,204,204);fill-rule:nonzero;"/>
        </g>
        <g transform="matrix(27.9181,0,0,27.9181,1207.07,457.928)">
            <path d="M0.368,-0L0.257,-0L0.257,-0.017C0.231,-0.013 0.205,-0.009 0.179,-0.004C0.148,0 0.122,0.003 0.101,0.003C0.06,0.003 0.04,-0.017 0.04,-0.058L0.04,-0.493L0.151,-0.493L0.151,-0.093L0.257,-0.095L0.257,-0.493L0.368,-0.493L0.368,-0ZM0.333,-0.526L0.226,-0.526L0.226,-0.631L0.333,-0.631L0.333,-0.526ZM0.184,-0.526L0.077,-0.526L0.077,-0.631L0.184,-0.631L0.184,-0.526Z" style="fill:rgb(204,204,204);fill-rule:nonzero;"/>
        </g>
        <g transform="matrix(27.9181,0,0,27.9181,1218.49,457.928)">
            <path d="M0.351,-0.287L0.24,-0.287L0.24,-0.4L0.152,-0.398L0.152,-0L0.04,-0L0.04,-0.493L0.152,-0.493L0.152,-0.475C0.175,-0.479 0.198,-0.484 0.221,-0.488C0.248,-0.493 0.271,-0.495 0.29,-0.495C0.331,-0.495 0.351,-0.475 0.351,-0.435L0.351,-0.287Z" style="fill:rgb(204,204,204);fill-rule:nonzero;"/>
        </g>
        <g transform="matrix(27.9181,0,0,27.9181,1228.93,457.928)">
            <path d="M0.35,-0.061C0.35,-0.02 0.329,-0 0.288,-0L0.1,-0C0.059,-0 0.038,-0.02 0.038,-0.061L0.038,-0.167L0.145,-0.167L0.145,-0.084L0.243,-0.084L0.243,-0.162L0.072,-0.263C0.049,-0.277 0.038,-0.294 0.038,-0.317L0.038,-0.432C0.038,-0.473 0.059,-0.493 0.101,-0.493L0.287,-0.493C0.328,-0.493 0.349,-0.473 0.349,-0.432L0.349,-0.333L0.243,-0.333L0.243,-0.409L0.145,-0.409L0.145,-0.338L0.316,-0.238C0.339,-0.225 0.35,-0.207 0.35,-0.183L0.35,-0.061Z" style="fill:rgb(204,204,204);fill-rule:nonzero;"/>
        </g>
        <g transform="matrix(27.9181,0,0,27.9181,1239.77,457.928)">
            <path d="M0.359,-0.061C0.359,-0.02 0.338,-0 0.296,-0L0.103,-0C0.061,-0 0.04,-0.02 0.04,-0.061L0.04,-0.432C0.04,-0.473 0.061,-0.493 0.103,-0.493L0.296,-0.493C0.338,-0.493 0.359,-0.473 0.359,-0.432L0.359,-0.251L0.328,-0.22L0.147,-0.22L0.147,-0.082L0.252,-0.082L0.252,-0.164L0.359,-0.164L0.359,-0.061ZM0.252,-0.293L0.252,-0.411L0.147,-0.411L0.147,-0.293L0.252,-0.293Z" style="fill:rgb(204,204,204);fill-rule:nonzero;"/>
        </g>
        <g transform="matrix(27.9181,0,0,27.9181,1250.94,457.928)">
            <rect x="0.043" y="-0.764" width="0.11" height="0.764" style="fill:rgb(204,204,204);fill-rule:nonzero;"/>
        </g>
        <g transform="matrix(27.9181,0,0,27.9181,1256.4,457.928)">
            <path d="M0.359,-0.061C0.359,-0.02 0.338,-0 0.296,-0L0.103,-0C0.061,-0 0.04,-0.02 0.04,-0.061L0.04,-0.432C0.04,-0.473 0.061,-0.493 0.103,-0.493L0.296,-0.493C0.338,-0.493 0.359,-0.473 0.359,-0.432L0.359,-0.251L0.328,-0.22L0.147,-0.22L0.147,-0.082L0.252,-0.082L0.252,-0.164L0.359,-0.164L0.359,-0.061ZM0.252,-0.293L0.252,-0.411L0.147,-0.411L0.147,-0.293L0.252,-0.293Z" style="fill:rgb(204,204,204);fill-rule:nonzero;"/>
        </g>
        <g transform="matrix(27.9181,0,0,27.9181,1267.57,457.928)">
            <path d="M0.369,-0L0.257,-0L0.257,-0.4L0.152,-0.398L0.152,-0L0.04,-0L0.04,-0.493L0.152,-0.493L0.152,-0.475C0.178,-0.479 0.204,-0.483 0.229,-0.487C0.261,-0.493 0.288,-0.495 0.308,-0.495C0.349,-0.495 0.369,-0.475 0.369,-0.435L0.369,-0Z" style="fill:rgb(204,204,204);fill-rule:nonzero;"/>
        </g>
    </g>
    <defs>
        <radialGradient id="_Radial1" cx="0" cy="0" r="1" gradientUnits="userSpaceOnUse" gradientTransform="matrix(41.9945,0,0,64.3353,788.396,158.799)"><stop offset="0" style="stop-color:rgb(71,121,60);stop-opacity:1"/><stop offset="0.46" style="stop-color:rgb(80,133,68);stop-opacity:1"/><stop offset="1" style="stop-color:rgb(102,165,88);stop-opacity:1"/></radialGradient>
    </defs>
</svg>
