<?xml version="1.0" encoding="UTF-8" standalone="no"?>
<!DOCTYPE svg PUBLIC "-//W3C//DTD SVG 1.1//EN" "http://www.w3.org/Graphics/SVG/1.1/DTD/svg11.dtd">
<svg xmlns="http://www.w3.org/2000/svg" xml:space="preserve" fill-rule="evenodd" stroke-linecap="round" stroke-miterlimit="1.5" clip-rule="evenodd" viewBox="0 0 1660 561">
  <path fill="#66a558" stroke="#363636" stroke-width="2.5" d="M817 122c-6 0-14 3-21-1-6-3-12-11-17-26-3-9-14-6-23-4-8 3 20 47 26 67 1 3 4 16 7 20 5 7 18 11 28 9s28-6 31-27c2-7-7-6-9-13-2-4 3-8 3-11-2-11-9-13-25-14Z"/>
  <path fill="#f1c85c" stroke="#363636" stroke-miterlimit="2" stroke-width="2.5" d="M0 313h1660v23H0z"/>
  <path fill="#363636" stroke="#000" stroke-width="2.5" d="m307 125 59 78v71h-19v27h64v-27h-19v-71l59-78h9v-23h-53v23h11l-39 52-39-52h11v-23h-53v23h9ZM522 121v-20h-48v26h22v148h-18v26h65v-26h-21V166l36 51h9l38-54v110h-19v26h65v-26h-20V127h22v-26h-48v17l-43 61-40-58ZM1143 115V96h-47v26h22v147h-18v26h64v-26h-21V160l35 51h9l37-54v110h-19v26h64v-26h-19V122h21V96h-47v16l-41 61-40-58ZM1525 241a30 30 0 0 1-60 0v-2h-25v2a55 55 0 0 0 111 2h0v-2c0-18-10-35-25-46 0 0 0 0 0 0l-2-1-49-20c-9-6-14-15-14-25a30 30 0 0 1 60 0v2h25v-2a55 55 0 0 0-111-1v1c1 19 10 36 26 46h0l3 2 49 20c7 5 12 14 12 24ZM852 96v45h23v-19h40v146h-20v27h66v-27h-20V122h38v19h24V96H852ZM1038 122v146h-20v27h65v-27h-19V122h19V96h-65v26h20ZM257 101h-43c-34 2-60 29-62 63v72l1 3c1 34 29 61 64 61s64-29 64-64h9v-24h-72v24h37c0 21-17 38-38 38-22 0-39-17-39-38v-70c0-21 16-38 37-39h42v17h24V89h-24v12ZM1337 207v61h60v-18h23v45h-128v-27h19V122h-19V96h128v45h-23v-19h-60v62h18v-22h24v67h-24v-22h-18Z"/>
  <path fill="#f1c85c" stroke="#000" stroke-width="2.5" d="M719 459v61h59v-18h24v45H674v-27h18V374h-18v-26h128v45h-24v-19h-59v62h18v-22h23v67h-23v-22h-18ZM263 374h-25v-26h58v26h-6l28 123 27-57h13l28 57 28-123h-7v-26h58v26h-24l-40 173h-21l-28-60-29 60h-21l-39-173ZM508 373h-12v-25h50v25h-12v109h0a38 38 0 1 0 77 0h0V373h-13v-25h51v25h-13v111h0a64 64 0 0 1-128 0h0V373Z"/>
  <path fill="#f4e45f" stroke="#363636" stroke-miterlimit="2" stroke-width="1.7" d="M705 308c0-1 1-3 3-2l10 8c5 4 6 20 2 21-3 1-5-15-9-18-3-4-8-8-6-9ZM700 315c1 1 2 10 1 12l-4 6c-3 4-7 8-9 6l-1-6 2-6c1-1 4-4 4-6 1-3-1-8 2-6h5Z"/>
  <path fill="#f4e45f" stroke="#363636" stroke-miterlimit="2" stroke-width="1.7" d="M702 313c2-2 3-3 7 1 2 1 7 9 7 13 0 6-3 13-5 13-2-1-2-6-4-11l-5-10c-3-4-3-4 0-6Z"/>
  <path fill="#f4e45f" d="M694 316c0 1 3 2 5 1l4-1c2-2 5-5 5-8l-1-2"/>
  <path fill="#f4e45f" stroke="#363636" stroke-miterlimit="2" stroke-width="1.7" d="M743 316c2 0 5 4 5 9 0 3-1 10-3 14-2 3-5 3-6 2-3-1-1-10 0-15v-4c0-5 1-6 4-6Z"/>
  <path fill="#f4e45f" stroke="#363636" stroke-miterlimit="2" stroke-width="1.7" d="M749 313c2-1 7 2 10 7l2 14c0 5-3 7-5 7-1 0-3-1-4-4l-3-10-3-10c0-4 1-3 3-4Z"/>
  <path fill="#f4e45f" stroke="#363636" stroke-miterlimit="2" stroke-width="1.7" d="M757 309h3l6 4 2 5 2 8c0 2-4 5-7 1-2-1-3-5-6-9-2-4-3-8 0-9ZM708 306h-1l-4-4c-4-2-10-3-13-3-3 1-6 4-7 6s0 8 3 10c3 0 6-1 7 1h1"/>
  <path fill="#f4e45f" stroke="#363636" stroke-miterlimit="2" stroke-width="1.7" d="M766 313c-1-2-15-10-16-10-4-2-9-1-12-1s-11 0-14 4c0 1-1 4 1 7h11c3 0 3 8 3 9"/>
  <path fill="#f4e45f" d="M692 294v4a5 5 0 0 0 10 0v-4M738 297v4a5 5 0 0 0 10 0v-4M701 251l-10 1 1 13 10-1-1-13ZM748 252h-10v10h10v-10Z"/>
  <path fill="#f4e45f" stroke="#363636" stroke-miterlimit="2" stroke-width="1.7" d="m700 301 1-2v-62l-3-14c0-3-2-6-5-5-3 0-5 3-5 6l3 15v17l1 41v2M748 302v-50l2-5c0-3 3-6 3-13l-2-16c-1-4-7-2-10-2s-5 3-5 6a4393 4393 0 0 0 2 32v44"/>
  <path fill="#66a558" stroke="#363636" stroke-width="2.5" d="M686 212a74 74 0 0 1-29-60c0-25 12-48 30-60a43 43 0 0 1-6-55l-1-5c0-7 6-13 14-13h5c1-3 4-5 7-5 4-1 7 1 9 3a44 44 0 0 1 7 1c3-2 6-3 9-2s5 4 6 7a43 43 0 0 1 12 65c21 12 36 36 36 64 0 26-12 48-30 61v2c0 6-5 10-11 10-3 0-6-1-8-3a58 58 0 0 1-32-1c-2 3-5 4-8 4-6 0-11-4-11-10l1-3Z"/>
  <ellipse cx="720.7" cy="153.5" fill="url(#a)" rx="52.4" ry="60.4"/>
  <path fill="#363636" d="M704 55c1-2 0-3-1-4l-27-8a3 3 0 0 0-1 5l26 9c2 0 3-1 3-2Z"/>
  <g fill="#dfd558">
    <path d="M741 60c6 7 8 17 3 24-3 4-4 0-9 0-4 0-11 4-15 1-2-2-2-5-3-7-1-3-3-3-4-5 0-4 1-8 3-11 2-2 5-3 10-4 6 0 13 0 15 2Z"/>
    <path stroke="#363636" stroke-width="2.5" d="m736 58 5 2c6 7 8 17 3 24-3 4-4 0-9 0-4 0-11 4-15 1"/>
    <path stroke="#363636" stroke-width="2.5" d="m736 84-12-5c-1 0-4 0-6-2-3-1-4-4-4-5"/>
  </g>
  <circle cx="745.4" cy="48.6" r="10.8" fill="#fff" stroke="#363636" stroke-width="2.5"/>
  <path d="M745 47a4 4 0 1 1 1 7 4 4 0 0 1-1-7Z"/>
  <path fill="#363636" d="m735 49-13 2 1 4 12-2v-4Z"/>
  <circle cx="712.7" cy="53.9" r="10.8" fill="#fff" stroke="#363636" stroke-width="2.5"/>
  <path fill="#d9d9d9" stroke="#363636" stroke-width="1.3" d="M835 140a17 17 0 1 1-24 24 17 17 0 0 1 24-24Z"/>
  <path fill="#434343" d="M828 148a1 1 0 0 0-1-1l-6 5a1 1 0 0 0 1 2l6-6Z"/>
  <path fill="#434343" d="M834 156a1 1 0 1 0 0-2l-12-2a1 1 0 0 0 0 2l12 2Z"/>
  <g fill="#535353">
    <path d="m834 141-2 1 1 1 1-2ZM814 161h-1l-1 1 1 1 1-2Z"/>
  </g>
  <g fill="#787878">
    <path d="M823 137h-1v2h1v-2ZM823 165h-1v2h1v-2Z"/>
  </g>
  <g fill="#787878">
    <path d="M838 152v1h-2v-1h2ZM809 152h-1v-1l1 1Z"/>
  </g>
  <g fill="#535353">
    <path d="M833 163h1l-2-2v1l1 1ZM813 143l1-1-1-1-1 1 1 1Z"/>
  </g>
  <path fill="#c02727" stroke="#363636" stroke-width="2.5" d="m716 121-7-7 14-16 13 16-7 7 14 44-20 33-21-33 14-44Z"/>
  <path fill="#66a558" stroke="#363636" stroke-width="2.5" d="M700 99a79 79 0 0 0-62-11c-8 3-11 12 8 23 8 5 17 29 24 48 1 5 6 17 13 22 0 0 10 2 16 1 9-3 17-2 26-11 5-4 4-11 3-17-1-20-20-49-28-55Z"/>
  <path fill="#66a558" d="m830 126-1 7 7 9 4-3-10-13Z"/>
  <ellipse cx="830.4" cy="132.4" fill="none" rx="1.4" ry="2.2"/>
  <path fill="#66a558" d="M831 130c2-1 5 1 7 4s1 6-1 7-5 0-7-3c-1-3-1-6 1-8Z"/>
  <path fill="none" stroke="#363636" stroke-miterlimit="2" stroke-width="1.3" d="m828 134 2 4c3 4 5 5 7 4"/>
  <path fill="#66a558" stroke="#363636" stroke-miterlimit="2" stroke-width="2.5" d="M836 142s0 0 0 0l5-2 1-5M842 178c3-3 3-8 0-13-4-6-9-10-11-8-10 6-1 11 1 14 4 4 2 15 10 7Z"/>
  <path fill="#66a558" stroke="#363636" stroke-miterlimit="2" stroke-width="2.5" d="M831 188c5-1 8-7 6-13s-6-12-10-10c-15 4-6 11-5 14 2 5-1 12 9 9Z"/>
  <path fill="#66a558" stroke="#363636" stroke-miterlimit="2" stroke-width="2.5" d="M810 192c5 2 11-1 13-7 1-6 1-15-7-18-10-3-12 9-13 12-1 5 2 12 7 13Z"/>
  <path d="M712 52a4 4 0 1 1 1 7 4 4 0 0 1-1-7Z"/>
  <path fill="#66a558" d="M718 165c-2-3-8-5-13-2-4 2-7 6-6 10v1"/>
  <path fill="#66a558" stroke="#363636" stroke-miterlimit="2" stroke-width="2.5" d="m706 167 3 10c2 3 6 6 10 4 3-1 4-8 4-12-1-2-3-8-7-11"/>
  <path fill="#66a558" d="M713 170c-1-5-6-7-11-6-4 1-7 5-7 9l1 1M692 170c-1-4-5-6-9-5a8 8 0 0 0-5 10"/>
  <path fill="#66a558" stroke="#363636" stroke-miterlimit="2" stroke-width="2.5" d="m673 167 7 15c1 1 5 7 11 7 7-1 5-10 4-11l-1-4"/>
  <path fill="#66a558" stroke="#363636" stroke-miterlimit="2" stroke-width="2.5" d="M692 171c2 2 3 7 4 9 1 4 3 9 9 9 3-1 5-4 6-9 1-6-3-11-6-15M848 166c2-4 2-9-2-12-4-4-10-8-13-3-4 7 3 7 5 10 4 3 5 14 10 5Z"/>
  <g>
    <path fill="#dbd6dc" stroke="#363636" stroke-miterlimit="2" stroke-width="5" d="M139 239c-5-11-25-20-54-8-23 10-32 31-27 42l94 224c4 10 28 17 53 4 28-13 32-24 28-38l-94-224Z"/>
    <path fill="#a8a8a8" stroke="#363636" stroke-miterlimit="2" stroke-width="5" d="m142 247-3-8c-5-11-25-20-54-8-23 10-32 31-27 42l5 15"/>
    <path fill="#a8a8a8" d="m139 246-5-2-69 32c-2 1-3 3-2 5 0 2 3 4 8 2 9-2 15-2 23-5 11-4 23-9 25-11 5-5 11-7 18-10 2-1 2-2 2-4v-7Z"/>
    <path fill="#dbd6dc" stroke="#363636" stroke-miterlimit="2" stroke-width="5" d="M130 284c-4-9-41 0-58-4-8-2-14-6-15-9 0 0 68 192 98 228 11 14 18 23 42 25 17 2 51-3 48-16 0 0-14-10-19-18l-96-206Z"/>
    <path fill="#363636" d="m105 240-14 7c-3 3-5 6-5 10l2 5 6 5c7 4 18 4 27 2 3-1 15-4 20-15 4-8 1-12 0-17a3 3 0 0 0-5 1c1 4 3 7 0 14-4 9-14 11-17 12-7 2-17 2-23-1l-4-4-1-2c0-3 2-5 5-7 3-3 7-4 11-6a3 3 0 0 0-2-4Z"/>
    <path fill="gray" d="m117 298-41 27 24 57c20-3 35-11 45-22l-28-62Z"/>
    <path fill="#262626" d="m71 305 21-1 25-6-31 51-15-44Z"/>
    <path fill="none" stroke="#363636" stroke-miterlimit="2" stroke-width="5" d="m147 362-30-67s-15 8-26 9c-10 1-23 0-23-2l30 77 1 3 22-6c9-3 26-14 26-14Z"/>
    <path fill="gray" stroke="#363636" stroke-miterlimit="2" stroke-width="5" d="m177 466-32-71s-6 5-18 7c-6 2-19 4-19 2l35 76s12-1 17-4c6-2 17-10 17-10ZM178 333c-4 3-9 6-15 7l36 73c4 0 8-3 10-6l-31-74Z"/>
    <path fill="#262626" d="M193 370c-3-2-6-6-9-3l-2 8 16 37 11-5-16-37Z"/>
    <path fill="none" stroke="#363636" stroke-miterlimit="2" stroke-width="5" d="M178 333c-4 3-9 6-15 7l36 73c4 0 8-3 10-6l-31-74Z"/>
    <path fill="#2b2725" d="M119 426c5-3 11-1 13 3 2 5 0 10-5 13-5 2-13-14-8-16ZM140 459c1-2 4-1 6 0 2 2 3 5 2 6-1 2-4 2-6 0-3-2-3-4-2-6ZM134 447c-2-1-2-4 0-7 1-4 4-5 6-5 1 1 2 5 0 8-1 3-4 5-6 4Z"/>
    <path fill="#3e3e3e" d="m175 468-33-18 1 8 25 14 7-4ZM161 475l-27-14 1 4 19 13 7-3Z"/>
    <path fill="#2b2725" d="M127 440c5-2 12 2 15 9 3 8 2 16-3 18s-17-25-12-27Z"/>
    <path fill="none" stroke="#363636" stroke-miterlimit="2" stroke-width="5" d="m177 466-32-71s-6 5-18 7c-6 2-19 4-19 2l35 76s12-1 17-4c6-2 17-10 17-10Z"/>
    <path fill="#3e3e3e" d="m196 468-2-1c-11 8-23 14-35 19a2 2 0 0 0 2 3c12-5 23-11 34-18l1-3Z"/>
    <path fill="#4e4e4e" d="m196 468-2-1c-11 8-23 14-35 19a2 2 0 0 0 2 3c12-5 23-11 34-18l1-3ZM218 504l-2-1-15 10-13 7a1 1 0 1 0 1 3l14-8a369 369 0 0 0 15-11ZM206 502l-2-1-11 7-10 5a2 2 0 1 0 1 3l11-6 10-6 1-2ZM154 275h-3l-7 5-6 3a1 1 0 0 0 1 2l7-3 7-5 1-2ZM158 280h-2l-9 5-7 3v3h2l7-3 8-6 1-2ZM214 419l-2-1-7 5-7 3v2h2l6-3 8-4v-2ZM215 423h-2l-7 5-6 2-1 2 2 1 7-3 7-5v-2ZM218 428l-2-1-7 5-6 3-1 2 2 1 7-3 7-5v-2ZM222 437l-2-1-7 5-6 3-1 2h2l7-3 7-4v-2ZM227 446h-2l-7 5-6 3-1 2h2l6-3 8-5v-2ZM231 457l-2-1-7 5-6 3-1 2 2 1 7-3 7-5v-2ZM233 461h-2l-7 4c-2 2-7 3-7 3v2l2 1 6-3 7-5 1-2ZM225 441l-2-1-8 5-6 3v2l2 1 6-3 7-5 1-2ZM160 289h-2l-8 5-7 4-1 2h2l8-3 8-5v-3ZM69 268l2-1 3-10 3-7v-2l-2 1-4 7-3 10 1 2ZM77 274l2-2 1-9 2-8c1-1 0-1-1-2l-2 2-2 7-1 10 1 2ZM99 233l2 2 10-1 7 1 2-1-2-2-7-1-10 1-2 1ZM163 294h-2l-7 4-6 3v2l2 1 6-3 6-5 1-2ZM192 478l-2-1-18 12-16 7a2 2 0 0 0 2 3c5-2 7-2 17-8l17-11v-2ZM196 484l-2-1-18 12-17 7a2 2 0 0 0 2 3l17-8 17-11 1-2ZM141 386c0-1-1-2-2-1l-18 7-16 4-1 2 2 1 17-4 17-7 1-2ZM143 377l-2-1-20 8-17 4a2 2 0 0 0 1 4c6-2 8-1 19-5l18-7c1-1 2-2 1-3ZM198 495l-2-1-16 11-14 6-1 2 3 1 14-7 16-10v-2Z"/>
    <path fill="none" stroke="#363636" stroke-miterlimit="2" stroke-width="5" d="M130 284c-4-9-41 0-58-4-8-2-14-6-15-9 0 0 68 192 98 228 11 14 18 23 42 25 17 2 51-3 48-16 0 0-14-10-19-18l-96-206Z"/>
    <path fill="none" stroke="#363636" stroke-miterlimit="2" stroke-width="5" d="m233 463-94-224c-5-11-25-20-54-8-23 10-32 31-27 42l48 128 46 96"/>
    <path fill="#333" d="m116 310-2 1-12 22a1 1 0 1 0 2 1l12-22v-2ZM116 321h-2l-12 22a1 1 0 0 0 2 1l12-22v-1ZM121 321h-2l-12 22a1 1 0 0 0 2 1l12-22v-1ZM121 330h-2l-12 22a1 1 0 0 0 2 1l12-22v-1ZM126 330h-2l-12 22a1 1 0 0 0 2 1l12-22v-1ZM128 333h-1l-13 22a1 1 0 0 0 2 1l13-21-1-2ZM130 337l-1 1-13 22a1 1 0 0 0 2 1l13-22-1-2ZM130 345l-1 1-13 21a1 1 0 0 0 2 2l13-22-1-2ZM135 348l-2 1-10 17a1 1 0 0 0 2 2l10-18v-2ZM137 353l-1 1-6 10a1 1 0 0 0 2 1l6-10-1-2Z"/>
  </g>
  <g fill="#363636" font-family="'AgencyFB-Bold','Agency FB',sans-serif" font-size="27.9" font-stretch="condensed" font-weight="700" transform="translate(-1134 -473) scale(2.01415)">
    <text x="980" y="430">seit 2011 ofﬁzielle Schülerzeitung des</text>
    <text x="980" y="458">Gymnasium der Stadt Würselen</text>
  </g>
  <defs>
    <radialGradient id="a" cx="0" cy="0" r="1" gradientTransform="matrix(52.4375 0 0 60.4405 721 154)" gradientUnits="userSpaceOnUse">
      <stop offset="0" stop-color="#47793c"/>
      <stop offset=".5" stop-color="#508544"/>
      <stop offset="1" stop-color="#66a558"/>
    </radialGradient>
  </defs>
</svg>
